<?xml version="1.0" encoding="UTF-8"?>
<svg id="Layer_1" xmlns="http://www.w3.org/2000/svg" version="1.1" viewBox="0 0 1870 325">
  <!-- Generator: Adobe Illustrator 29.4.0, SVG Export Plug-In . SVG Version: 2.1.0 Build 152)  -->
  <defs>
    <style>
      .st0 {
        fill-rule: evenodd;
      }
    </style>
  </defs>
  <g>
    <path d="M1735.47,113.65c-2.3,1.28-3.08,2.58-2.35,3.88.04.08.15.24.31.49s.33.48.5.69c.15.28.36.6.62.98.26.37.37.52.33.44.42.75.52,1.55.29,2.41-.22.85-.67,1.47-1.35,1.84-1.86,1.04-3.44.39-4.75-1.95l-.27-.47c-.03-.14-.08-.29-.17-.45l-1.18-3.08c-.23-.6-.48-1.19-.75-1.76-.27-.58-.57-1.16-.9-1.76-.38-.67-.76-1.32-1.15-1.93s-.78-1.17-1.17-1.68l-2.01-2.62c-.09-.16-.17-.27-.26-.32l-.3-.54c-1.3-2.34-1.03-4.02.83-5.06,1.74-.97,3.13-.53,4.17,1.33-.04-.08.03.1.22.54s.35.78.49,1.01c.12.3.23.57.34.82s.19.41.24.49c.71,1.27,2.21,1.26,4.5-.02l3.98-2.22,5.08-2.76,4.81-2.68,9.29-5.26c2.18-1.22,2.67-2.89,1.48-5.03l-.96-1.72c-1.17-2.1-2.83-2.55-4.96-1.36-.47.27-.86.48-1.16.65s-.53.32-.71.47l-1.89,1.36c-.18.15-.4.3-.68.46-.28.15-.55.31-.83.46-2.93,1.64-4.99,1.38-6.18-.75-1.15-2.06-.6-3.72,1.66-4.98.16-.09.4-.22.71-.4.32-.18.62-.32.92-.44.12-.07.27-.14.46-.22s.38-.18.58-.29c1.85-.88,3.03-1.46,3.54-1.74.44-.24.88-.51,1.35-.79.46-.29.96-.6,1.49-.95l1.62-1.14c.22-.17.33-.24.36-.2.02.04.19-.08.5-.36,2.14-1.19,3.79-.74,4.96,1.36.13.24.37.69.72,1.35.34.66.74,1.49,1.19,2.49l.27.47c.2.36.48.89.85,1.59s.82,1.58,1.35,2.63c.6,1.07,1.18,2.16,1.75,3.27.57,1.11,1.15,2.2,1.75,3.27.11.2.29.49.53.88.24.38.52.85.82,1.41.27.47.58,1.02.96,1.65.37.62.78,1.33,1.22,2.12.38.67,1.12,1.87,2.23,3.58.45.63.88,1.27,1.28,1.94.4.66.71,1.21.96,1.65,1.41,2.53,1.03,4.41-1.14,5.62-.4.22-1.15.58-2.25,1.06s-2.25,1.01-3.44,1.57l-.59.33c-.24.13-.58.33-1.04.58-.46.25-.96.59-1.51,1-.75.52-1.37.95-1.86,1.27-.49.33-.84.55-1.04.66-2.06,1.15-3.68.65-4.88-1.48-1.15-2.06-.52-3.76,1.9-5.11.67-.38,1.74-.89,3.19-1.55.69-.34,1.31-.64,1.83-.9.53-.27.95-.49,1.26-.67,2.1-1.17,2.49-2.92,1.19-5.26l-.89-1.6c-.57-1.03-1.25-1.64-2.03-1.83s-1.71-.03-2.78.46l-4.08,2.04-19.39,10.75h.02Z"/>
    <path d="M1747.94,158.44c-2.98-5.34-3.44-10.67-1.37-15.98,2.14-5.19,6.39-9.57,12.77-13.12,6.41-3.58,12.38-4.89,17.9-3.92,5.55,1.01,9.87,4.28,12.96,9.82,2.98,5.34,3.49,10.57,1.51,15.67-1.94,5.18-5.97,9.49-12.11,12.91-6.65,3.71-12.82,5.08-18.51,4.1-5.68-.78-10.06-3.93-13.16-9.48h.01ZM1784.4,138.24c-1.88-3.36-4.65-5.22-8.32-5.56s-7.94.85-12.81,3.57c-4.95,2.76-8.25,5.8-9.91,9.11s-1.55,6.63.3,9.96c1.77,3.17,4.53,4.95,8.28,5.35,3.84.45,8.25-.71,13.23-3.49,4.87-2.72,8.1-5.7,9.68-8.95,1.59-3.25,1.43-6.57-.47-9.98h.02Z"/>
    <path d="M1772.09,201.69c-2.98-5.34-3.44-10.67-1.37-15.98,2.14-5.19,6.39-9.57,12.77-13.12,6.41-3.58,12.38-4.89,17.9-3.92,5.55,1.01,9.86,4.28,12.96,9.82,2.98,5.34,3.48,10.57,1.51,15.67-1.94,5.18-5.97,9.49-12.11,12.91-6.65,3.71-12.82,5.08-18.5,4.1-5.68-.78-10.06-3.93-13.16-9.48h0ZM1808.55,181.49c-1.88-3.36-4.65-5.22-8.32-5.56-3.67-.34-7.94.85-12.81,3.57-4.95,2.76-8.25,5.8-9.9,9.11-1.66,3.31-1.56,6.63.3,9.96,1.77,3.17,4.53,4.95,8.28,5.35,3.84.45,8.25-.71,13.24-3.5,4.87-2.72,8.1-5.7,9.68-8.95,1.59-3.25,1.43-6.57-.47-9.98h0Z"/>
    <path d="M1804.09,234.88c-2.14,1.19-3.22,1.95-3.24,2.28-.13.33-.12.67.02,1,.14.34.37.83.71,1.48.33.64.74,1.4,1.23,2.27l2.78,4.99c1.35,2.41,2.51,3.79,3.48,4.13.87.35,2.25,0,4.15-1.07l1.96-1.09c.33-.24.66-.45.98-.62s.59-.33.83-.46c.2-.11.37-.22.52-.33s.26-.18.34-.23c2.22-1.24,3.88-.87,4.98,1.11,1.24,2.22.83,3.9-1.23,5.05-.63.35-1.06.57-1.28.64l-3.08,1.18c-.46.2-.9.41-1.33.62-.43.21-.86.44-1.29.68-.16.09-.36.2-.59.33-.24.13-.5.31-.8.52-.16.09-.29.18-.4.26-.11.09-.24.17-.4.26-.45.3-.9.59-1.34.87-.44.27-.79.48-1.02.61-2.26,1.26-4.1.6-5.54-1.97-.07-.12-.13-.26-.2-.43-.07-.17-.19-.41-.37-.73-.11-.2-.23-.44-.37-.73s-.29-.59-.47-.91c-.11-.3-.26-.61-.44-.92-.18-.32-.39-.69-.63-1.13-.18-.32-.35-.65-.52-1s-.36-.72-.58-1.12l-2.33-4.31-5.1-9.14c-.18-.32-.4-.71-.66-1.19-.27-.48-.58-1-.95-1.57-.13-.24-.29-.5-.48-.79s-.37-.59-.54-.9c-.07-.12-.18-.3-.34-.55-.16-.25-.34-.5-.54-.75-.24-.33-.46-.66-.67-.99-.21-.33-.39-.63-.54-.9-1.26-2.26-.94-3.92.96-4.98,1.74-.97,3.12-.55,4.14,1.27-.04-.08.03.1.22.54.19.44.33.79.43,1.05.15.28.29.54.4.79s.19.41.23.49c.73,1.31,2.24,1.32,4.54.04l22.86-12.76c2.3-1.28,3.08-2.58,2.35-3.88-.15-.28-.38-.59-.68-.94-.45-.53-.83-1.07-1.14-1.62-.42-.75-.53-1.53-.34-2.34.2-.81.69-1.44,1.48-1.88,1.86-1.04,3.43-.41,4.71,1.89.09.16.18.32.27.48.09.16.17.35.24.57l-.03-.06,1.33,3.23c.36.84.69,1.59.99,2.25.29.67.53,1.16.71,1.48.24.44.57.94.97,1.52s.84,1.2,1.32,1.87l1.82,2.41-.03-.06c.13.14.24.29.34.47.1.18.18.33.25.45,1.3,2.34,1.03,4.02-.83,5.06-.79.44-1.58.53-2.38.27-.79-.26-1.4-.76-1.82-1.51-.29-.51-.55-1.12-.78-1.82-.05-.18-.11-.36-.18-.52-.07-.17-.16-.35-.27-.55-.73-1.31-2.24-1.32-4.54-.04l-22.21,12.4-.04-.02Z"/>
    <path d="M1861.29,262.57c1.83,3.29,2.54,6.5,2.11,9.65,1.48-.41,2.62.09,3.42,1.52,1.08,1.94.54,3.52-1.64,4.73l-.36.2s-.1.05-.2.07c-.09.02-.17.06-.25.1-.48.16-1.19.47-2.13.92-.94.45-1.99.99-3.14,1.64-.04.02-.1.07-.19.14-.09.08-.21.16-.37.24-.12.07-.28.16-.48.27s-.42.26-.68.46l-2.1,1.4c-.15.19-.29.3-.4.34s-.26.11-.46.22c-2.38,1.33-4.14.96-5.29-1.1-1.17-2.1-.73-3.72,1.33-4.87l.3-.17,1.67-.78c.3-.12.55-.23.74-.34.2-.11.36-.2.47-.27,2.02-1.13,3.22-2.69,3.61-4.7s-.09-4.22-1.44-6.63c-1.24-2.22-2.74-3.66-4.52-4.33-1.78-.67-3.57-.5-5.4.52-2.1,1.17-3.11,2.93-3.05,5.28,0,.73.16,1.69.51,2.87s.8,2.55,1.36,4.11c.8,2.36,1.42,4.55,1.88,6.58s.58,3.65.37,4.85c-.32,1.94-.99,3.67-2.02,5.18-1.03,1.51-2.43,2.76-4.21,3.75-3.8,2.12-7.71,2.46-11.73,1.02-3.88-1.47-7.02-4.34-9.4-8.61-2.08-3.72-2.94-7.45-2.58-11.18-1.9,1.06-3.4.6-4.51-1.38-1.17-2.1-.69-3.74,1.45-4.94.16-.09.33-.16.51-.21l3.1-1.42c1.53-.7,2.49-1.16,2.89-1.38.32-.18.74-.45,1.26-.82s1.15-.81,1.9-1.33,1.39-.96,1.92-1.31,1.02-.65,1.45-.89c2.26-1.26,3.96-.86,5.11,1.2,1.19,2.14.66,3.84-1.59,5.09l-1.19.66c-.14.03-.31.1-.51.21s-.42.23-.65.36c-2.61,1.46-4.22,3.43-4.83,5.93-.61,2.49-.12,5.17,1.48,8.02,1.46,2.61,3.22,4.34,5.27,5.19,2.06.85,4.16.68,6.29-.52,1.5-.84,2.45-2.07,2.85-3.69.39-1.62.26-3.49-.41-5.61l-1.23-3.6c-.65-1.82-1.16-3.47-1.52-4.95-.36-1.49-.62-2.78-.77-3.89-.22-2.26.21-4.4,1.29-6.41,1.09-2.01,2.68-3.6,4.78-4.77,3.56-1.99,7.23-2.3,11.01-.93,3.59,1.32,6.56,4.07,8.9,8.27l.02.04Z"/>
  </g>
  <g>
    <path class="st0" d="M1578.75,6.44c3.3.3,6.6.84,9.86,1.58,3.27.74,6.52,1.69,9.72,2.83.16.06.32.11.48.17s.32.12.48.17c.16.06.32.12.48.17.16.06.31.12.47.18.16.06.32.12.47.18.16.06.31.12.47.18.16.06.31.12.47.18.16.06.31.12.47.18.16.06.31.12.47.19.15.06.31.12.46.19.15.06.31.12.46.19.15.06.31.13.46.19.16.06.31.13.46.19.15.06.31.13.46.19.16.07.31.13.46.2.15.07.31.13.46.2.15.07.3.13.45.2.15.07.3.13.45.2.15.07.3.13.45.2.15.07.3.14.45.2.15.07.3.14.45.21.15.07.3.14.45.21.15.07.3.14.44.21.15.07.3.14.44.21.15.07.3.14.44.21s.29.14.44.21c.15.07.29.14.44.21.15.07.29.14.44.22.15.07.29.14.44.22.15.07.29.15.44.22.14.07.29.15.43.22.15.07.29.15.43.22s.29.15.43.22.29.15.43.22c.14.08.29.15.43.23s.28.15.42.23.29.15.42.23c.14.08.28.15.42.23s.28.15.42.23.28.16.42.23l.42.24.42.24.42.24.42.24c.14.08.28.16.41.24l.42.24c.14.08.28.16.41.24.14.08.27.16.41.24s.28.16.41.25c.13.08.27.16.41.25s.27.16.41.25c.13.08.27.17.4.25.14.08.27.17.41.25.13.08.27.17.4.25s.27.17.4.25c.13.09.27.17.4.26s.27.17.4.26.27.17.4.26.26.17.4.26c.13.09.26.17.39.26s.26.17.39.26.26.18.39.26l.39.27.39.27.39.27.39.27.39.27.39.27.39.27c.13.09.25.18.38.27s.26.18.38.27c.13.09.26.19.38.28.13.09.25.18.38.28.13.09.26.19.38.28.13.09.26.19.38.28.13.09.25.19.37.28s.25.19.38.28c.12.1.25.19.37.28.13.1.25.19.37.29.13.1.25.19.37.29.13.1.25.19.37.29s.24.19.37.29.25.19.37.29.24.19.37.29.25.2.37.29.24.2.37.29c.12.1.24.2.37.3.13.1.25.2.37.3.12.1.24.2.36.3s.24.2.37.3.24.2.36.3.24.2.36.3.24.2.36.3.24.2.36.3.24.2.36.31c.12.1.24.2.36.31.12.1.24.2.36.31.12.1.24.21.36.31.12.1.24.21.36.31.12.1.24.21.35.31s.24.21.36.31l.35.31c.12.1.24.21.35.31.12.1.23.21.35.31.12.11.24.21.35.32.11.1.23.21.35.32s.24.21.35.32c.12.11.24.21.35.32s.23.21.35.32c.11.11.23.21.35.32s.23.21.35.32.23.21.35.32.23.21.35.32c.11.11.23.22.35.33s.23.22.35.33c.11.11.23.22.34.33s.23.22.34.33.23.22.34.33.23.22.34.33.23.22.34.33.23.22.34.33.23.22.34.33.22.22.34.33c.11.11.23.22.34.33s.22.22.34.33c.11.11.22.22.34.34.11.11.22.22.33.34.11.11.23.22.34.34.11.11.22.22.33.34.11.11.22.22.33.34.11.11.22.23.33.34s.22.23.33.34.22.23.33.34.22.23.33.34.22.23.33.34.22.23.33.34.22.23.33.35c.11.11.22.23.33.35s.22.23.33.35.22.23.33.35.22.23.33.35.22.23.33.35.22.23.33.35.22.23.33.35.22.23.33.35.22.24.33.35c.11.12.22.23.33.35s.22.24.33.35c.11.12.22.24.33.35.11.12.22.24.33.35.11.12.22.24.33.36s.21.24.32.36.22.24.32.36c.11.12.22.24.33.36s.22.24.33.36.21.24.32.36.22.24.32.36c.11.12.21.24.32.36s.22.24.32.36c.11.12.21.24.32.36s.22.24.32.36c.11.12.22.24.32.36s.21.24.32.36.21.24.32.36.22.24.32.36.21.24.32.37c.11.12.22.24.32.37.11.12.21.25.32.37s.21.24.32.37c.11.12.21.25.32.37s.21.25.32.37.21.24.32.37c.11.12.21.25.32.37s.21.25.32.37.21.25.32.37.21.25.31.37c.11.12.21.25.31.37.11.13.21.25.32.37s.21.25.32.37.21.25.32.37.21.25.32.37c.11.13.21.25.31.38.1.12.21.25.31.38.11.12.21.25.32.38.11.12.21.25.31.38.1.13.21.25.31.38.11.12.21.25.31.38.11.13.21.25.31.38.11.13.21.25.32.38s.21.25.31.38c.1.13.21.25.31.38.11.13.21.25.32.38s.21.25.31.38c.1.13.21.26.31.38s.21.25.31.38c.11.13.21.25.31.38s.21.25.32.38.21.26.31.38c.1.13.21.26.31.38.11.13.21.26.32.38.11.13.21.25.31.38.1.13.21.26.31.39.11.13.21.26.31.39.11.13.21.26.31.38s.21.26.31.38c.11.13.21.26.31.39.11.13.21.26.31.39.11.13.21.26.31.39.11.13.21.26.32.39s.21.26.31.39c.1.13.21.26.31.39.11.13.21.26.32.39s.21.26.31.39c.1.13.21.26.31.39.11.13.21.26.32.39s.21.26.31.39c.11.13.21.26.31.39.11.13.21.26.32.39.19.24.38.47.57.7.19.24.37.47.57.71.19.23.38.47.57.71s.37.47.56.71c.19.23.37.47.56.71.19.24.37.47.56.71.19.24.37.47.56.71.19.24.37.47.56.71.18.24.37.47.56.71.19.24.37.47.55.71.19.24.37.47.55.71.19.24.37.48.55.71.18.24.37.47.55.71s.37.47.55.71.37.48.55.71c.18.24.36.47.55.71.18.24.37.47.55.71s.37.48.55.72.36.48.54.71c.18.24.36.48.54.72s.36.48.54.72.36.48.54.72.36.48.54.72.36.48.54.72.36.48.54.72.36.48.53.72.35.48.53.72.35.48.53.72.35.48.53.72.35.48.53.72.35.48.52.72c.18.24.35.48.53.72s.35.48.53.72.35.48.52.72c.18.24.35.48.53.72.17.24.35.48.52.72s.35.48.52.73c.17.24.34.48.52.73.18.24.35.48.52.73s.34.48.52.73.35.48.52.73.34.49.51.73.34.49.51.73c.17.24.34.48.51.73.17.24.34.49.51.73.17.24.34.49.51.73s.34.49.51.73c.17.24.34.49.51.73.17.24.34.49.5.73.17.24.34.49.5.73.17.24.34.49.5.73.17.24.34.49.5.73.17.24.33.49.5.74.17.24.33.49.5.73.17.25.33.49.5.73.17.25.33.49.5.74s.33.49.5.74c.17.24.33.49.5.74s.33.49.5.74.33.49.5.74.33.49.49.74.33.49.49.74.33.49.49.74.33.49.49.74.33.49.49.74.33.5.49.74c.16.25.33.49.49.74s.33.5.48.74c.16.25.32.49.48.74s.33.5.48.74c.16.25.32.5.48.74.16.25.32.5.48.74.16.25.32.5.48.75s.32.5.48.75.32.5.48.75.32.5.48.75.32.5.48.75.32.5.48.75.32.5.48.75.32.5.48.75.32.5.47.75c.16.25.32.5.47.75.16.25.32.5.47.75.16.25.32.5.47.75s.31.5.47.75c.16.25.31.5.47.75.15.25.31.5.47.75.16.25.31.5.47.76.15.25.31.5.46.75.16.25.31.5.47.76.16.25.31.5.47.75.16.25.31.5.46.76.15.25.31.5.46.76.15.25.31.5.46.76.16.25.31.5.46.76.15.25.31.5.46.76.15.25.31.5.46.76.15.25.31.51.46.76.15.25.31.5.46.76.15.25.31.51.46.76.15.25.31.51.46.76.15.25.31.51.46.76.15.25.31.51.46.76.15.25.3.51.45.76.15.25.3.51.46.76.15.25.3.51.45.76.15.25.31.51.46.76.15.25.3.51.45.77.15.25.3.51.45.77.15.25.3.51.45.77.15.25.3.51.45.77.15.25.3.51.45.77.15.26.3.51.45.77.15.25.3.51.45.77.15.26.3.51.45.77.15.26.3.51.45.77.15.26.3.51.44.77.15.26.3.51.45.77.15.26.29.51.44.77.15.26.3.51.44.77.15.26.29.51.44.77.15.26.3.51.44.77.15.26.3.52.44.77.15.26.29.51.44.77.15.26.29.52.44.77.15.26.29.51.44.77.15.26.29.52.44.78.15.26.29.51.44.77.15.26.29.51.44.77.15.26.29.52.44.78.15.26.29.52.44.78.15.26.29.52.44.78.15.26.29.52.44.78.14.26.29.52.44.78.15.26.29.52.43.78.15.26.29.52.44.78.14.26.29.52.44.78.15.26.29.52.43.78.15.26.29.52.43.78.15.26.29.52.44.78s.29.52.43.78.28.52.43.78.29.52.43.78c.15.26.29.52.43.78s.28.52.43.79c.14.26.28.52.43.78.14.26.29.52.43.78s.29.52.43.79c.14.26.28.53.43.79.14.26.29.53.43.79s.29.52.43.79c.14.26.28.52.43.79s.29.53.43.79.28.53.42.79l.43.79c.14.26.28.53.42.79s.29.53.43.79.28.53.42.79.28.53.42.79.28.53.42.79.28.53.42.79.28.53.42.79.28.53.42.79.28.53.42.79.28.53.42.79.28.53.42.8c.14.26.28.53.42.79s.28.53.42.8.28.53.42.8c.14.26.28.53.42.8s.28.53.42.8.28.53.42.8c.14.26.28.53.42.8.14.26.28.53.42.8s.28.53.42.8.28.53.42.8.28.53.42.8.28.54.42.8c.14.27.28.53.42.8s.28.54.42.8c.14.27.28.54.42.8.14.27.28.54.42.8.14.27.28.54.42.8.14.27.28.53.42.8s.28.54.42.8c.14.27.28.54.42.8.14.27.28.54.42.8.14.27.28.54.42.81s.28.54.42.8c.14.27.28.54.42.81s.28.54.42.81.28.54.42.81.28.54.42.81.28.54.42.81.28.54.42.81.28.54.42.81.28.54.42.81.28.54.42.81.28.54.42.81.28.54.41.81.27.54.41.81.28.54.42.81.28.54.42.81.28.54.42.81.28.54.42.81.28.54.42.81.28.54.42.81.28.54.41.81.27.54.41.81.28.54.42.82c.14.27.28.54.42.82.14.27.28.54.42.82.14.27.28.54.42.82.13.27.27.54.41.82.13.27.27.55.41.82s.28.55.42.82.28.55.42.82.28.55.42.82.27.55.41.82.28.55.42.82c.13.27.27.55.41.82s.28.55.42.82.28.55.42.82.28.55.42.82.28.55.42.82.28.55.42.82.28.55.42.82c.14.28.28.55.42.82s.28.55.42.82c.13.27.27.55.41.82s.28.55.42.82c.14.28.28.55.42.83.14.27.28.55.42.83s.28.55.42.83.28.55.42.83.28.55.42.83c.14.27.28.55.42.83s.28.55.42.83.28.55.42.83.28.55.42.83.28.55.42.83l.42.83.42.83c.14.28.28.55.42.83s.28.55.42.83.28.55.42.83.28.56.42.83c.14.28.28.55.42.83s.28.56.42.83c.14.28.28.56.42.83.14.28.28.56.42.83.14.28.28.56.42.83.14.28.28.56.42.83l.42.84c.14.28.28.56.42.83l.42.84s.05.1.07.15c.02.05.05.1.08.15.03.05.05.1.08.15.02.05.05.11.08.15.03.05.05.11.08.16.02.05.05.11.08.16.03.05.05.1.08.15.02.05.05.11.08.16.03.05.05.11.08.16.03.05.06.11.08.16.02.05.05.11.08.16.02.06.05.11.08.16.02.06.05.11.08.16.02.06.05.11.08.17.03.05.05.11.08.17.03.06.05.11.08.17s.05.11.08.17c.03.06.05.11.08.17.03.06.05.11.08.17.03.06.06.11.09.17s.06.11.08.17c.03.06.06.11.09.17.03.06.05.11.08.18.03.06.06.12.09.18.03.06.06.11.08.18.03.06.06.12.09.18s.05.12.08.18c.03.06.06.11.09.18.03.06.06.12.09.18.03.06.06.12.09.18.03.06.06.12.09.18.03.06.05.12.08.18.03.06.05.12.08.18.03.06.06.12.09.18.03.06.06.12.09.19.03.06.06.12.09.18.03.06.06.12.09.18.03.07.06.13.09.19.03.07.06.13.09.19.03.07.06.13.09.19.03.07.06.13.09.19.03.06.06.13.09.19.03.06.06.12.09.19.03.07.06.13.09.19.03.06.06.13.09.19.03.07.06.13.09.19.03.06.06.13.09.19.03.07.06.13.09.2.03.07.06.13.09.2.03.06.05.13.08.19.03.07.06.13.09.2.02.07.05.13.08.2.03.07.06.13.09.2.03.07.05.13.08.2.03.07.06.13.09.2.02.07.05.13.08.2.03.07.06.13.09.2.03.07.05.13.08.2.03.07.06.13.09.2.02.07.05.13.08.2.03.07.06.13.08.2.03.07.06.13.08.2.03.07.06.13.08.2.03.07.06.13.08.2.02.07.05.13.08.2.02.07.05.13.08.2.02.07.05.13.08.2.02.07.05.13.08.2.03.07.05.13.08.2.03.07.06.13.08.2.02.07.05.13.08.2.02.07.05.13.08.2.02.07.05.13.08.2.03.07.05.13.08.2.02.07.05.13.07.2.02.07.05.14.08.21s.05.14.08.2c.02.07.05.14.07.21.02.07.05.13.07.2s.05.14.08.21c.02.07.05.14.07.21.02.07.05.14.07.21.02.07.05.13.07.2.02.07.05.14.07.21s.05.13.07.2c.02.07.05.14.07.21s.04.14.07.21c.02.07.05.14.07.21s.04.14.07.21c.02.07.05.14.07.21.02.07.04.14.07.21s.05.14.07.21c.02.07.05.14.07.21.02.07.04.14.07.21s.04.14.07.21c.02.07.04.14.06.21.02.07.04.14.06.21s.04.14.06.21c.02.07.04.14.06.21l.06.21c.02.07.04.14.06.21.02.07.04.14.06.21s.04.14.06.21c.02.07.04.14.06.21.02.07.04.14.06.21s.04.13.05.2.04.14.05.21c.02.07.04.13.05.2s.04.14.05.21c.02.07.04.13.05.2.02.07.03.14.05.21.02.07.03.13.05.2l.05.21c.02.07.03.13.05.2s.03.14.04.21c.02.07.03.13.05.2s.03.14.04.2c.02.07.03.14.04.2.01.07.03.14.05.2.01.07.02.14.04.2.01.07.02.13.04.2.01.07.02.13.04.2.01.07.03.13.04.2s.02.13.03.2.02.13.04.2c.01.07.02.14.03.2.01.07.02.13.03.2s.02.13.03.2c0,.07.02.13.03.2,0,.07.02.13.03.2s.02.13.03.2c0,.07.02.13.02.2s.02.13.02.2c.01.07.02.13.03.2,0,.07.02.13.02.2s.02.13.02.2.01.13.02.2c0,.07.02.13.02.19,0,.07.01.13.02.2,0,.07,0,.13.02.2,0,.06,0,.13.02.19,0,.07,0,.13.01.2,0,.07,0,.13.01.19v2.79c0,.06,0,.12-.01.18,0,.06-.01.12-.02.18,0,.06,0,.12-.02.18,0,.06,0,.12-.02.18,0,.06-.01.12-.02.18,0,.06-.01.12-.02.18,0,.06-.01.12-.02.18,0,.06-.01.12-.02.18,0,.06-.02.11-.03.17,0,.06-.02.11-.03.18,0,.06-.02.12-.03.18,0,.06-.02.11-.03.17-.01.06-.02.11-.03.17-.01.06-.02.11-.04.17-.01.06-.02.11-.03.17-.01.06-.03.11-.04.17-.01.06-.02.11-.04.17-.01.05-.03.11-.04.16-.01.05-.03.11-.05.16-.01.05-.03.11-.04.16-.01.06-.03.11-.05.16-.02.05-.03.11-.05.16-.02.05-.03.11-.05.16-.02.05-.03.1-.05.15s-.04.11-.06.16c-.02.05-.04.1-.06.15s-.04.1-.06.15-.04.1-.06.15-.04.1-.06.15-.04.1-.07.15c-.02.05-.05.1-.07.15-.02.05-.05.1-.07.15-.02.05-.05.1-.07.15-.02.05-.05.1-.07.15-.03.05-.05.1-.08.15-.02.05-.05.1-.08.14-.03.05-.05.09-.08.14-.02.05-.05.09-.08.14-.03.05-.06.09-.08.14-.03.05-.06.09-.09.13-.03.04-.06.09-.09.14-.03.04-.06.09-.09.13-.03.04-.06.09-.09.13-.03.05-.06.09-.09.13-.03.04-.07.09-.1.13-.03.05-.07.09-.1.13s-.07.09-.1.13c-.04.05-.07.09-.11.13-.04.05-.07.09-.11.13s-.07.08-.11.12-.07.08-.11.12-.07.08-.11.12-.08.08-.12.12-.07.08-.11.12-.08.08-.12.11c-.04.04-.08.08-.12.11-.05.04-.09.08-.13.11s-.08.08-.13.11c-.04.04-.09.07-.13.11-.05.04-.09.07-.13.11-.04.04-.09.07-.13.11-.05.04-.09.07-.14.11-.05.03-.09.07-.14.11-.05.03-.09.07-.14.1s-.09.07-.14.1c-.04.04-.09.07-.15.1-.05.03-.1.06-.15.09s-.1.07-.15.09c-.05.03-.1.07-.15.09-.05.03-.1.07-.15.09-.05.03-.11.06-.16.09s-.11.06-.16.09-.11.06-.16.09c-.06.03-.11.06-.17.09s-.11.06-.17.08c-.06.03-.11.06-.18.08-.06.02-.11.05-.18.08-.06.03-.11.05-.18.08-.06.02-.12.05-.18.07-.06.02-.12.05-.18.07-.06.02-.12.05-.19.07-.06.02-.12.05-.19.07-.07.02-.13.05-.19.07-.06.02-.13.05-.19.07-.07.02-.13.05-.2.07-.07.02-.13.04-.2.06s-.13.04-.2.06-.13.04-.2.06-.14.04-.21.05-.14.03-.21.05-.14.04-.21.05-.15.03-.22.05-.14.03-.22.05c-.07.02-.15.03-.22.04-.08.01-.15.03-.22.04-.07.02-.15.03-.23.04s-.15.03-.23.04-.15.02-.23.04c-.06,0-.12.02-.19.03-.06.01-.12.02-.18.03-.06,0-.13.02-.19.02s-.12.02-.18.02-.12.02-.18.02-.12.02-.18.02-.12.01-.18.02c-.06,0-.12.01-.18.02-.06,0-.12,0-.18.02-.06,0-.11,0-.18.01-.06,0-.12,0-.18.01h-2.35c-.06,0-.11,0-.16-.01s-.11,0-.16-.01c-.05,0-.11,0-.16-.01h-.16c-.05-.02-.1-.02-.15-.03-.05,0-.11-.01-.16-.02-.05,0-.1,0-.15-.02-.05,0-.1-.01-.15-.02-.05,0-.1-.01-.15-.02-.05,0-.1-.02-.15-.02s-.11-.02-.15-.02c-.05,0-.1-.02-.15-.02s-.1-.02-.15-.03c-.05,0-.1-.02-.15-.03-.05,0-.1-.02-.15-.03s-.1-.02-.15-.03c-.05,0-.1-.02-.15-.03-.05,0-.1-.02-.15-.03s-.1-.02-.14-.04c-.04-.01-.09-.02-.14-.03s-.1-.03-.14-.04c-.05-.01-.1-.02-.14-.04-.05-.02-.1-.03-.14-.04-.05-.01-.09-.02-.14-.04-.05-.01-.09-.02-.14-.04-.05-.02-.09-.03-.14-.05-.05-.01-.09-.03-.14-.04-.05-.02-.09-.03-.14-.05-.05-.01-.09-.03-.13-.04-.04-.02-.09-.03-.13-.05s-.09-.03-.13-.05c-.05-.02-.09-.03-.13-.05-.05-.02-.09-.03-.13-.05s-.09-.04-.13-.05c-.05-.02-.09-.03-.13-.05s-.09-.04-.13-.06-.09-.04-.13-.06c-.05-.02-.09-.04-.13-.06-.05-.02-.09-.04-.13-.06-.29-.13-.59-.28-.87-.43s-.56-.31-.83-.47c-.27-.16-.54-.33-.8-.5-.26-.18-.52-.35-.77-.54-2.16-1.59-4.03-3.51-5.69-5.64-17.29-22.11-28.16-48.08-42.92-71.77-.08-.12-.15-.25-.22-.38s-.15-.25-.22-.38c-.08-.12-.15-.25-.22-.38s-.15-.25-.22-.38c-.08-.13-.15-.25-.22-.38-.08-.13-.15-.25-.23-.38-.07-.12-.15-.25-.22-.38s-.15-.25-.22-.38-.15-.25-.22-.38-.15-.25-.22-.38c-.07-.12-.15-.25-.22-.38-.08-.13-.15-.25-.22-.38s-.15-.25-.22-.38c-.08-.13-.15-.25-.22-.38s-.15-.25-.23-.38c-.07-.13-.15-.25-.22-.38-.08-.13-.15-.25-.22-.38s-.15-.25-.22-.38c-.08-.13-.15-.25-.22-.38s-.15-.25-.22-.38c-.08-.13-.15-.25-.22-.38s-.15-.25-.22-.38c-.08-.13-.15-.25-.22-.38s-.15-.25-.22-.38c-.08-.13-.15-.25-.22-.38s-.15-.25-.22-.38c-.08-.13-.15-.25-.22-.38s-.15-.25-.22-.38c-.08-.13-.15-.25-.22-.38s-.15-.25-.22-.38c-.08-.13-.15-.25-.22-.38s-.15-.25-.22-.38-.15-.25-.22-.38c-.08-.13-.15-.25-.22-.38s-.15-.25-.22-.38-.15-.25-.22-.38-.15-.25-.22-.38-.15-.25-.22-.38c-.08-.13-.15-.25-.22-.38s-.15-.25-.22-.38c-.08-.13-.15-.25-.22-.38s-.15-.26-.22-.38c-.08-.13-.15-.26-.22-.38-.07-.13-.15-.26-.22-.38-.08-.13-.15-.25-.22-.38s-.15-.26-.22-.38c-.08-.13-.15-.26-.22-.38-.07-.13-.15-.26-.22-.39s-.15-.26-.22-.38c-.08-.13-.15-.26-.22-.38-.07-.13-.15-.26-.22-.38-.07-.13-.15-.26-.22-.39s-.15-.26-.22-.39-.15-.26-.22-.39c-.08-.13-.15-.26-.22-.39s-.15-.26-.22-.39-.15-.26-.22-.39c-.08-.13-.15-.26-.22-.39s-.15-.26-.22-.39-.15-.26-.22-.39-.15-.26-.22-.39-.15-.26-.22-.39c-.08-.13-.15-.26-.22-.39s-.15-.26-.22-.39-.15-.26-.22-.39c-.08-.13-.15-.26-.22-.39s-.15-.26-.22-.39-.15-.26-.22-.39-.15-.26-.22-.39-.15-.26-.22-.39c-.08-.13-.15-.26-.22-.39s-.15-.26-.22-.39c-.08-.13-.15-.26-.22-.39s-.15-.26-.22-.39c-.08-.13-.15-.26-.22-.39s-.15-.26-.22-.39c-.08-.13-.15-.26-.22-.39s-.15-.26-.22-.39c-.08-.13-.15-.26-.22-.39s-.15-.26-.22-.39-.15-.26-.22-.39c-.08-.13-.15-.26-.22-.39s-.15-.26-.22-.4c-.07-.13-.15-.26-.22-.39s-.15-.26-.22-.39-.15-.26-.22-.4c-.08-.13-.15-.26-.22-.39s-.15-.26-.22-.4c-.07-.13-.15-.26-.22-.4-.08-.13-.15-.26-.22-.4-.07-.13-.15-.26-.22-.39s-.15-.27-.22-.4c-.07-.13-.15-.26-.22-.4-.07-.13-.15-.27-.22-.4s-.15-.26-.22-.4c-.07-.13-.15-.27-.22-.4-.07-.13-.15-.27-.22-.4-.07-.13-.15-.27-.22-.4-.07-.13-.15-.27-.22-.4-.07-.13-.15-.27-.22-.4-.07-.13-.15-.27-.22-.4s-.15-.27-.22-.4c-.08-.13-.15-.27-.22-.4s-.15-.27-.22-.4c-.08-.13-.15-.27-.22-.4-.07-.13-.15-.27-.22-.4-.09-.16-.18-.32-.27-.48s-.18-.32-.27-.48-.18-.32-.27-.49-.18-.33-.27-.49-.18-.32-.27-.49c-.09-.16-.18-.33-.27-.49s-.18-.33-.27-.49-.18-.33-.27-.49c-.09-.17-.18-.33-.28-.49-.09-.16-.18-.33-.27-.49s-.18-.33-.27-.49c-.09-.17-.19-.33-.28-.5-.09-.16-.19-.33-.28-.49-.09-.17-.19-.33-.28-.5-.09-.17-.19-.33-.28-.5-.09-.16-.18-.33-.28-.5-.09-.17-.18-.33-.28-.5-.09-.17-.19-.33-.28-.5-.09-.17-.19-.34-.28-.5-.09-.17-.19-.33-.28-.5-.09-.17-.19-.34-.28-.5-.09-.17-.19-.33-.28-.5-.09-.17-.19-.34-.28-.5-.1-.17-.19-.34-.29-.51-.09-.17-.19-.34-.28-.51-.09-.17-.19-.34-.29-.51-.09-.17-.19-.34-.28-.51-.09-.17-.19-.34-.29-.51-.1-.17-.19-.34-.29-.51-.1-.17-.2-.34-.29-.51s-.19-.34-.29-.51c-.09-.17-.19-.34-.29-.51-.1-.17-.19-.34-.29-.51-.09-.17-.19-.34-.29-.51-.1-.17-.2-.34-.29-.51-.1-.17-.2-.34-.29-.52-.09-.17-.19-.34-.29-.51-.1-.17-.2-.35-.29-.52-.1-.17-.2-.34-.29-.52-.1-.17-.2-.34-.29-.52-.1-.17-.2-.35-.29-.52-.1-.17-.2-.35-.29-.52-.1-.17-.2-.35-.29-.52-.1-.18-.2-.35-.3-.52s-.2-.35-.3-.52-.2-.35-.29-.52c-.1-.17-.2-.35-.3-.52-.1-.17-.2-.35-.3-.52-.1-.18-.2-.35-.3-.52-.1-.18-.2-.35-.3-.52-.1-.17-.2-.35-.3-.52-.1-.18-.2-.35-.3-.53s-.2-.35-.3-.52c-.1-.17-.2-.35-.3-.52-.1-.17-.2-.35-.3-.52-.1-.18-.2-.35-.3-.53s-.2-.35-.3-.53c-.1-.17-.2-.35-.31-.52s-.2-.35-.3-.53c-.1-.18-.2-.35-.31-.53s-.2-.35-.31-.53c-.1-.18-.2-.35-.31-.53s-.2-.35-.31-.53c-.1-.18-.2-.35-.31-.53-.1-.18-.2-.35-.31-.53-.1-.18-.21-.35-.31-.53-.1-.18-.2-.35-.31-.53-.11-.18-.21-.35-.31-.53-.11-.18-.21-.35-.31-.53-.11-.18-.21-.35-.31-.53-.11-.18-.21-.35-.31-.53-.11-.18-.21-.35-.31-.53-.1-.18-.21-.35-.31-.53-.1-.18-.21-.35-.31-.53-.11-.18-.21-.35-.31-.53-.11-.18-.21-.35-.31-.53-.1-.18-.21-.35-.31-.53-.11-.18-.21-.35-.32-.53s-.21-.35-.31-.53c-.1-.18-.21-.35-.31-.53l-.32-.53c-.1-.18-.21-.35-.31-.53-.1-.18-.21-.35-.31-.53-.11-.18-.21-.35-.32-.53s-.21-.35-.32-.53-.21-.35-.32-.53-.21-.35-.32-.53-.21-.35-.32-.53-.21-.35-.32-.53-.22-.35-.32-.53c-.11-.18-.21-.35-.32-.53s-.21-.35-.32-.53-.22-.35-.32-.53-.21-.35-.32-.53-.22-.35-.32-.53c-.11-.18-.22-.35-.33-.53s-.22-.35-.33-.53-.21-.35-.32-.53-.22-.35-.33-.53-.22-.35-.33-.53-.22-.35-.33-.53-.22-.35-.33-.53c-.11-.17-.22-.35-.33-.53s-.22-.35-.33-.53-.22-.35-.33-.53-.22-.35-.33-.53-.22-.35-.33-.53-.22-.35-.33-.53-.22-.35-.33-.53-.22-.35-.33-.53-.22-.35-.33-.53-.22-.35-.33-.53-.22-.35-.33-.53-.22-.35-.33-.53c-.11-.17-.22-.35-.33-.52-.11-.18-.22-.35-.33-.53s-.22-.35-.33-.52c-.11-.18-.22-.35-.33-.52-.11-.18-.22-.35-.34-.52-.11-.18-.22-.35-.33-.52-.11-.18-.22-.35-.33-.52-.11-.18-.23-.35-.34-.52s-.22-.35-.34-.52c-.11-.17-.22-.35-.33-.52s-.22-.35-.33-.52-.23-.35-.34-.52-.22-.35-.34-.52c-.11-.17-.23-.34-.34-.52-.11-.17-.22-.35-.34-.52-.11-.17-.23-.35-.34-.52s-.22-.35-.34-.52c-.11-.17-.23-.34-.34-.51-.11-.17-.23-.34-.34-.51-.11-.17-.22-.34-.34-.52-.11-.17-.23-.34-.34-.51-.11-.17-.23-.34-.34-.51-.11-.17-.23-.34-.34-.51-.11-.17-.23-.34-.34-.51-.11-.17-.23-.34-.35-.51-.11-.17-.23-.34-.34-.51-.11-.17-.23-.34-.34-.51-.11-.17-.23-.34-.35-.51-.12-.17-.23-.34-.35-.51-.11-.17-.23-.34-.35-.5-.12-.17-.23-.34-.35-.5-.11-.17-.23-.34-.35-.5-.11-.17-.23-.34-.35-.5-.11-.17-.23-.34-.35-.5-.12-.17-.23-.34-.35-.5-.11-.17-.23-.34-.35-.5-.12-.17-.23-.34-.35-.5-.12-.17-.23-.33-.35-.5s-.23-.33-.35-.5-.24-.33-.35-.5c-.11-.16-.23-.33-.35-.5-.11-.17-.23-.33-.35-.5-.11-.17-.23-.33-.35-.49-.11-.16-.23-.33-.35-.49-.12-.17-.24-.33-.35-.49-.12-.17-.23-.33-.35-.49-.12-.16-.23-.33-.35-.49-.12-.17-.24-.33-.35-.49-.12-.16-.24-.33-.35-.49-.12-.16-.24-.33-.35-.49s-.24-.33-.35-.49c-.12-.16-.24-.32-.35-.48-.12-.16-.24-.33-.35-.49-.12-.16-.24-.32-.35-.48-.12-.16-.24-.32-.36-.48s-.24-.32-.35-.48c-.12-.16-.24-.32-.35-.48-.12-.16-.24-.32-.36-.48s-.24-.32-.36-.48-.24-.32-.35-.48c-.12-.16-.24-.32-.36-.47-.12-.16-.24-.32-.36-.47-.12-.16-.24-.32-.36-.47-.12-.16-.24-.32-.36-.47-.12-.16-.24-.31-.36-.47s-.24-.31-.36-.47-.24-.31-.36-.47-.24-.31-.36-.47c-.12-.15-.24-.31-.36-.47s-.24-.31-.36-.46-.24-.31-.36-.46-.24-.31-.36-.46-.24-.31-.36-.46-.24-.31-.36-.46-.24-.31-.36-.46-.24-.3-.37-.45c-.12-.15-.24-.31-.36-.46s-.24-.3-.36-.45c-.12-.15-.24-.3-.37-.45-.12-.15-.24-.3-.36-.45-.12-.15-.24-.3-.36-.45-.12-.15-.24-.3-.37-.45s-.24-.3-.37-.45c-.12-.15-.24-.3-.36-.44-.12-.15-.24-.3-.37-.44-.12-.15-.24-.29-.37-.44s-.24-.29-.37-.44c-.12-.15-.24-.29-.37-.44-.12-.15-.24-.29-.37-.44-.12-.14-.24-.29-.37-.43-.12-.14-.24-.29-.37-.43-.12-.14-.24-.29-.37-.43-.12-.14-.24-.29-.37-.43-.12-.14-.24-.29-.37-.43-.12-.14-.24-.28-.37-.43-.12-.14-.25-.28-.37-.42s-.24-.28-.37-.42-.24-.28-.37-.42-.25-.28-.37-.42-.24-.28-.37-.42-.25-.28-.37-.42c-.13-.14-.25-.27-.37-.41s-.25-.27-.37-.41c-.12-.14-.24-.27-.37-.41s-.25-.27-.37-.41c-.13-.14-.25-.27-.37-.41s-.25-.27-.37-.4c-.12-.13-.24-.27-.37-.4-.13-.13-.25-.27-.37-.4-.13-.13-.25-.27-.37-.4-.13-.13-.25-.27-.37-.4-.13-.13-.25-.26-.37-.39-.13-.13-.25-.26-.37-.39-.13-.13-.25-.26-.37-.39-.13-.13-.25-.26-.37-.39-.13-.13-.25-.26-.38-.39-.12-.13-.25-.26-.37-.38-.12-.13-.25-.26-.37-.38-.13-.13-.25-.25-.38-.38s-.25-.25-.38-.38c-.12-.13-.25-.25-.37-.38-.13-.13-.25-.25-.38-.38-.13-.12-.25-.25-.37-.37-.13-.12-.25-.25-.38-.37s-.25-.25-.38-.37-.25-.24-.38-.37c-.13-.12-.25-.24-.38-.36s-.25-.24-.38-.36-.25-.24-.38-.36-.26-.24-.38-.36c-.13-.12-.25-.24-.38-.36s-.25-.24-.38-.35c-.13-.12-.25-.23-.38-.35-.13-.12-.26-.23-.38-.35-.13-.12-.26-.23-.38-.35-.13-.12-.25-.23-.38-.35-.13-.11-.25-.23-.38-.34-.13-.11-.26-.23-.38-.34-.13-.11-.26-.23-.38-.34-.13-.11-.26-.22-.38-.34-.13-.11-.26-.22-.38-.33s-.26-.22-.38-.33c-.04-.04-.09-.08-.14-.12s-.1-.08-.14-.12-.09-.08-.14-.12-.1-.08-.14-.12-.09-.08-.14-.12-.1-.08-.15-.12-.1-.08-.15-.12-.1-.08-.14-.12-.09-.08-.14-.12-.1-.08-.15-.12-.1-.08-.15-.12-.1-.08-.15-.12-.1-.08-.15-.12-.1-.08-.15-.12-.1-.08-.15-.12-.1-.08-.15-.12-.1-.08-.15-.12-.1-.08-.15-.12-.1-.08-.15-.12-.1-.09-.15-.13-.1-.08-.15-.12-.1-.08-.15-.12-.1-.08-.15-.12-.11-.08-.15-.12c-.05-.04-.1-.08-.15-.13-.05-.04-.1-.08-.15-.12s-.1-.08-.15-.12-.11-.09-.15-.13c-.05-.04-.11-.08-.16-.13-.05-.04-.11-.08-.15-.12-.05-.04-.11-.08-.16-.12s-.1-.08-.15-.12-.1-.08-.15-.12-.11-.08-.16-.12-.11-.08-.16-.12-.11-.09-.16-.13-.11-.08-.16-.13c-.05-.04-.11-.08-.16-.12s-.11-.08-.16-.12-.11-.09-.16-.13-.11-.08-.16-.13c-.05-.04-.11-.08-.16-.12s-.11-.08-.16-.12c-.06-.04-.11-.09-.16-.13s-.11-.08-.16-.13c-.05-.04-.11-.08-.16-.12s-.11-.08-.16-.12-.11-.08-.16-.12c-.06-.04-.11-.08-.16-.12-.06-.04-.11-.08-.17-.12-.05-.04-.11-.08-.17-.12-.05-.04-.11-.08-.16-.12-.06-.04-.11-.08-.17-.12-.05-.04-.11-.08-.17-.12s-.11-.08-.17-.12c-.05-.04-.11-.08-.17-.12s-.11-.08-.17-.12c-.05-.04-.11-.08-.17-.12s-.11-.08-.17-.12-.11-.08-.17-.12c-.05-.04-.11-.08-.17-.12s-.11-.08-.17-.12-.11-.08-.17-.12-.11-.08-.17-.12-.11-.08-.17-.12-.11-.08-.17-.12-.11-.08-.17-.12-.11-.08-.18-.12c-.06-.04-.12-.08-.18-.12s-.11-.08-.17-.12-.11-.08-.18-.12c-.06-.04-.12-.08-.18-.12s-.11-.08-.18-.12c-.06-.04-.12-.08-.18-.12s-.11-.08-.18-.12c-.06-.04-.12-.08-.18-.12s-.12-.08-.18-.12c-.06-.04-.11-.08-.18-.12-.06-.04-.12-.08-.17-.12-.06-.04-.12-.08-.18-.12-.06-.04-.12-.08-.18-.12-.06-.04-.12-.08-.18-.12-.06-.04-.12-.08-.18-.12-.06-.04-.12-.08-.18-.12-.06-.04-.12-.08-.18-.12-.06-.04-.12-.08-.18-.12-.06-.04-.12-.08-.18-.12-.06-.04-.12-.08-.18-.12-.06-.04-.12-.08-.18-.12-.06-.04-.12-.08-.18-.12-.06-.04-.12-.08-.18-.12-.06-.04-.12-.08-.18-.12-.06-.04-.12-.08-.18-.12-.06-.04-.12-.08-.18-.12-.06-.04-.12-.08-.18-.12-.06-.04-.13-.08-.19-.11-.06-.04-.13-.08-.19-.11-.06-.04-.12-.08-.18-.12-.06-.04-.12-.08-.19-.11-.06-.04-.12-.08-.19-.11-.06-.04-.12-.08-.19-.11-.06-.04-.12-.08-.19-.11-.07-.04-.13-.08-.19-.11-.07-.04-.13-.07-.19-.11-.06-.04-.13-.08-.19-.11-.06-.04-.12-.07-.19-.11s-.13-.08-.19-.11c-.06-.04-.13-.07-.19-.11-.07-.04-.13-.07-.19-.11-.06-.04-.13-.08-.19-.11-.07-.04-.13-.08-.2-.11s-.13-.07-.19-.11c-.06-.03-.13-.07-.19-.11s-.13-.07-.2-.11-.13-.07-.19-.11c-.07-.04-.13-.07-.2-.11-.06-.04-.13-.07-.19-.11-.07-.04-.13-.07-.2-.11s-.13-.07-.2-.11-.13-.07-.2-.11-.13-.07-.2-.11-.13-.07-.2-.11-.13-.07-.2-.1-.13-.07-.2-.11c-.07-.03-.13-.07-.2-.1-.06-.03-.13-.07-.2-.1s-.13-.07-.2-.1-.13-.07-.2-.1-.13-.07-.2-.1-.13-.07-.2-.1-.13-.07-.2-.1l-.2-.1c-.07-.03-.13-.07-.2-.1s-.14-.07-.2-.1c-.07-.03-.14-.07-.2-.1-.07-.03-.14-.07-.2-.1-.07-.03-.14-.07-.2-.1-.07-.03-.14-.07-.2-.1l-.21-.1c-.07-.03-.13-.07-.2-.1s-.13-.06-.2-.1c-.07-.03-.14-.07-.21-.1s-.14-.06-.21-.1c-.07-.03-.14-.06-.21-.09s-.14-.06-.21-.09-.14-.06-.21-.09-.14-.06-.21-.09-.14-.06-.21-.09-.14-.06-.21-.09-.14-.06-.21-.09-.14-.06-.21-.09-.14-.06-.21-.09-.14-.06-.21-.09-.14-.06-.21-.09-.14-.06-.21-.09-.14-.06-.21-.09-.14-.06-.21-.09-.14-.06-.21-.09-.14-.06-.22-.09c-.07-.03-.14-.06-.21-.08-.07-.03-.14-.06-.21-.08-.07-.03-.15-.06-.22-.08-.07-.03-.14-.05-.22-.08-.07-.03-.15-.06-.22-.08-.07-.03-.14-.06-.22-.08-.07-.03-.15-.05-.22-.08-.07-.03-.14-.05-.22-.08-.07-.03-.15-.05-.22-.08-.07-.03-.15-.05-.22-.08-.07-.03-.14-.05-.22-.08-.07-.03-.14-.05-.22-.08-.07-.02-.15-.05-.22-.08-.07-.03-.15-.05-.22-.08-.07-.03-.15-.05-.22-.08-.07-.03-.15-.05-.22-.08s-.15-.05-.22-.07-.15-.05-.22-.07-.15-.05-.22-.07-.15-.05-.22-.07-.15-.05-.22-.07c-.08-.02-.15-.05-.22-.07s-.15-.05-.22-.07-.15-.05-.22-.07-.15-.04-.22-.07c-.07-.02-.15-.04-.23-.07-.07-.02-.15-.04-.22-.07-.08-.02-.15-.05-.22-.07-.08-.02-.15-.04-.23-.06-.07-.02-.15-.04-.23-.06-.07-.02-.15-.04-.22-.06-.08-.02-.15-.04-.23-.06s-.15-.04-.23-.06-.15-.04-.23-.06-.15-.04-.23-.06-.15-.04-.23-.06-.15-.04-.23-.06-.15-.04-.23-.06-.16-.04-.23-.06c-.08-.02-.15-.04-.23-.05-.08-.02-.15-.03-.23-.05s-.15-.04-.23-.05c-.08-.02-.15-.04-.23-.05-.08-.02-.15-.03-.23-.05s-.15-.03-.23-.05-.15-.03-.23-.05-.16-.03-.24-.05-.15-.03-.23-.05-.16-.03-.24-.05c-.08,0-.15-.03-.24-.05-.08-.02-.15-.03-.24-.04-.08-.02-.15-.03-.24-.04-.08,0-.16-.03-.24-.04-.08,0-.15-.03-.24-.04-.08,0-.15-.03-.24-.04-.08,0-.16-.03-.24-.04-.08,0-.16-.02-.24-.04-.08,0-.16-.03-.24-.04-.08,0-.16-.02-.24-.04-.08,0-.16-.02-.24-.04-.08,0-.16-.02-.24-.04-.08,0-.16-.02-.24-.03s-.16-.02-.24-.03-.16-.02-.24-.03-.16-.02-.24-.03-.16-.02-.24-.03-.16-.02-.24-.03-.16-.02-.24-.03-.16-.02-.24-.03-.16-.02-.24-.03c-.08,0-.16-.02-.24-.02s-.16-.02-.24-.02-.16-.02-.24-.02-.16-.02-.24-.02-.16,0-.25-.02c-.08,0-.16,0-.25-.02-.08,0-.16,0-.24-.02-.08,0-.16,0-.24-.02s-.16,0-.25-.02c-.09,0-.17,0-.25-.02h-5.79c-.13,0-.25,0-.38.02-.13,0-.25,0-.37.02-.13,0-.25,0-.38.02-.13,0-.25.02-.37.02-.13,0-.25.02-.37.03-.13,0-.25.02-.37.03-.13,0-.25.02-.37.03s-.24.02-.37.03-.25.02-.37.04c-.12,0-.24.02-.37.04-.13,0-.25.03-.37.04-.12,0-.24.03-.37.04-.12,0-.24.03-.37.05-.12,0-.24.03-.37.05s-.24.03-.37.05c-.12.02-.24.03-.37.05s-.24.03-.36.06l-.36.06-.36.06-.36.06c-.12.02-.24.04-.36.07-.12.02-.24.04-.36.07-.12.02-.24.05-.36.07s-.24.05-.36.07-.24.05-.36.07-.24.05-.35.07c-.12.02-.24.05-.36.08-.12.02-.24.05-.35.08-.12.03-.24.06-.35.08-.12.03-.24.06-.35.08-.12.03-.24.06-.35.09-.12.03-.23.06-.35.09s-.23.06-.35.09-.23.06-.35.09-.23.06-.35.09-.24.07-.35.1-.23.07-.35.1c-.11.03-.23.07-.35.1s-.23.07-.35.1c-.11.04-.23.07-.34.11-.11.03-.23.07-.34.11-.12.03-.23.07-.35.11s-.23.07-.35.11c-.11.04-.23.07-.34.11s-.22.08-.34.11c-.11.04-.23.08-.34.12s-.23.08-.34.12c-.11.04-.22.08-.34.12-.11.04-.23.08-.34.12-.11.04-.22.08-.34.13-.11.04-.23.08-.34.13-.11.04-.22.09-.33.13s-.22.09-.33.13-.22.09-.33.13-.22.09-.33.13c-.11.05-.22.09-.33.13-.11.05-.22.09-.33.14-.11.04-.22.09-.33.14s-.22.09-.33.14-.22.09-.33.14-.22.1-.33.14c-.11.05-.22.1-.33.15-.11.05-.22.1-.33.15-.11.05-.22.1-.33.15-.11.05-.22.1-.33.15-.11.05-.22.1-.33.16-.11.05-.22.1-.33.15s-.21.11-.32.16-.22.1-.32.16c-.11.05-.21.11-.32.16s-.22.11-.32.16l-.32.17c-.11.05-.21.11-.32.16s-.21.11-.32.17c-.11.06-.21.11-.32.17-.11.06-.21.11-.32.17-.11.06-.21.11-.32.17-.11.06-.21.11-.31.17-.1.06-.21.12-.31.18-.11.06-.21.12-.31.18-.1.06-.21.12-.31.18-.11.06-.21.12-.31.18-.1.06-.21.12-.31.18-.1.06-.21.12-.31.18-.1.06-.21.12-.31.19-.1.06-.21.12-.31.18-.1.06-.21.13-.31.19-.1.06-.2.13-.31.19-.1.06-.2.13-.31.19-.1.06-.2.13-.31.19-.1.07-.21.13-.31.19-.1.06-.2.13-.3.19-.1.07-.2.13-.3.2s-.2.13-.31.2-.2.13-.31.2c-.1.07-.2.13-.3.2s-.2.13-.3.2-.2.13-.3.2c-.1.07-.2.13-.3.2-.1.07-.2.13-.3.2s-.2.14-.3.21c-.1.07-.2.14-.3.21s-.2.14-.3.21c-.1.07-.2.14-.3.21-.1.07-.2.14-.29.21-.1.07-.2.14-.29.21-.1.07-.2.14-.3.21-.1.07-.2.14-.29.22s-.2.14-.29.22c-.1.07-.19.14-.29.22-.1.07-.2.14-.29.22-.1.07-.2.15-.29.22-.1.07-.2.15-.29.22-.1.07-.19.15-.29.22-.1.08-.2.15-.29.22-.1.08-.19.15-.29.22s-.19.15-.29.22c-.1.08-.2.15-.29.23-.09.08-.19.15-.29.23-.09.08-.19.15-.28.23-.09.08-.19.15-.29.23-.09.08-.19.15-.28.23-.09.08-.19.16-.29.23-.09.08-.19.15-.28.23-.09.08-.19.15-.28.23-.09.08-.19.15-.28.23-.09.08-.19.16-.28.24-.09.08-.19.16-.28.24-.09.08-.19.16-.28.24-.09.08-.18.16-.28.24-.09.08-.19.16-.28.24-.09.08-.18.16-.28.24-.09.08-.18.16-.28.24-.09.08-.18.16-.28.24-.09.08-.18.16-.28.24-.09.08-.18.16-.27.24-.09.08-.18.16-.27.24s-.18.16-.27.25c-.09.08-.18.16-.27.25-.09.08-.18.16-.27.25-.09.08-.18.17-.27.25s-.18.17-.27.25-.18.16-.27.25c-.09.08-.18.17-.27.25s-.18.17-.27.25-.18.17-.27.25-.18.17-.27.25-.18.17-.26.25-.18.17-.26.25c-.09.08-.18.17-.27.25s-.18.17-.26.25c-.09.09-.18.17-.26.26-.09.08-.18.17-.26.25-.09.09-.18.17-.26.26-.09.09-.18.17-.26.26-.09.09-.17.17-.26.26-.09.09-.17.17-.26.26-.09.09-.17.17-.26.26-.09.09-.17.17-.26.26-.09.09-.17.17-.26.26-.09.09-.17.17-.26.26l-.26.26-.26.26c-.09.09-.18.18-.26.26s-.18.18-.26.26-.17.18-.25.26c-.09.09-.17.18-.26.26-.09.09-.17.18-.26.26-.09.09-.17.18-.25.26-.09.09-.17.18-.26.27-.08.09-.17.18-.25.27s-.17.18-.25.26c-.08.09-.17.18-.25.27s-.17.18-.25.27-.17.18-.25.27-.16.18-.25.27-.17.18-.25.27c-.09.09-.17.18-.25.27s-.16.18-.25.27c-.08.09-.17.18-.25.27s-.16.18-.25.27c-.08.09-.17.18-.25.27s-.16.18-.24.27-.16.18-.25.27c-.08.09-.16.18-.24.27s-.16.18-.24.27c-.09.09-.17.18-.25.27s-.16.18-.24.27-.16.18-.24.27-.16.18-.24.27-.16.18-.24.27-.16.18-.24.27-.16.18-.24.27-.16.18-.24.27-.16.18-.24.27-.16.18-.24.27-.16.18-.24.27-.16.18-.24.27-.16.18-.24.27-.16.18-.24.27-.16.18-.24.27-.16.18-.24.27-.16.18-.24.27-.16.18-.24.27-.16.18-.24.27-.15.18-.23.27-.16.18-.24.27-.15.18-.23.27-.16.18-.24.27-.15.18-.23.27-.15.18-.23.27-.15.18-.23.27-.15.18-.23.27-.15.18-.23.27-.15.18-.23.27-.15.18-.23.27-.15.18-.23.27-.15.18-.23.27-.15.18-.23.27-.15.18-.23.27-.15.18-.23.27-.15.18-.23.27-.15.18-.22.27-.15.18-.22.27c-.08.09-.15.18-.22.27-.08.09-.15.18-.22.27-.08.09-.15.18-.22.27s-.15.18-.22.27c-.08.09-.15.18-.22.27l-.22.27c-.07.09-.15.18-.22.27-.08.09-.15.18-.22.27s-.15.18-.22.27-.15.18-.22.27-.15.18-.22.27-.15.18-.22.27-.15.18-.22.27-.15.18-.22.27-.15.18-.22.27-.15.18-.22.27-.14.18-.22.26c-.07.09-.15.18-.22.27s-.14.18-.22.26c-.07.09-.14.18-.22.26-.07.09-.14.18-.22.26-.07.09-.14.18-.22.26s-.14.18-.21.26c-.07.09-.15.18-.22.26s-.14.18-.22.26c-.07.09-.14.17-.21.26-.07.09-.14.17-.21.26-.07.09-.14.17-.21.26-.2.25-.4.49-.6.73-.2.24-.4.49-.6.73-.2.25-.39.49-.59.73-.2.24-.39.49-.59.73-.2.24-.39.49-.59.73-.2.25-.39.49-.59.73s-.39.49-.59.73c-.2.24-.39.49-.58.73-.19.25-.39.49-.58.73s-.39.49-.58.73c-.2.24-.39.49-.58.73l-.57.73c-.19.24-.38.49-.57.73-.19.24-.38.49-.57.73s-.38.49-.57.73-.38.49-.57.73c-.19.24-.37.49-.56.73-.19.24-.37.49-.56.73l-.56.73c-.19.24-.37.49-.56.73-.18.24-.37.49-.55.73-.19.24-.37.49-.55.73-.18.24-.37.49-.55.73-.18.24-.37.49-.55.73s-.37.49-.55.73c-.18.24-.36.49-.55.73-.18.24-.36.49-.54.73-.18.24-.37.49-.55.73-.18.24-.36.49-.54.73-.18.24-.36.49-.54.73-.18.24-.36.49-.53.73-.18.24-.36.49-.54.73-.18.24-.36.49-.53.73-.18.24-.35.49-.53.73-.18.24-.35.49-.53.73-.18.24-.35.49-.53.73-.17.24-.35.49-.53.73s-.35.49-.53.73-.35.49-.52.73c-.18.24-.35.49-.52.73s-.35.49-.52.73c-.18.24-.35.49-.52.73s-.35.49-.52.73c-.17.24-.34.49-.51.73s-.34.49-.51.73c-.17.24-.34.49-.51.73-.17.24-.34.49-.51.73-.17.24-.34.49-.51.73-.17.24-.34.49-.5.73-.17.24-.34.49-.5.73-.17.24-.34.49-.5.73-.17.24-.33.48-.5.73-.17.24-.33.49-.5.73-.17.24-.33.49-.5.73-.17.24-.33.49-.5.73-.17.24-.33.49-.5.73s-.33.49-.49.73c-.17.24-.33.49-.49.73-.16.24-.33.49-.49.73-.16.24-.33.49-.49.73-.16.24-.33.49-.49.73-.16.24-.32.49-.48.73-.16.24-.33.49-.48.73-.16.24-.32.49-.48.73-.16.24-.32.49-.48.73-.16.24-.33.49-.48.73-.16.24-.32.49-.48.73-.16.24-.32.49-.48.73-.16.24-.32.49-.48.73-.16.24-.32.49-.48.73l-.48.73c-.16.24-.31.49-.47.73-.16.24-.31.49-.47.73s-.31.49-.47.73c-.16.24-.31.49-.47.73-.16.24-.32.49-.47.73s-.31.49-.46.73c-.16.24-.31.49-.47.73-.16.24-.31.49-.47.73s-.31.49-.46.73-.31.49-.46.73-.31.49-.46.73c-.15.24-.31.49-.46.73-.15.24-.31.49-.46.73-.15.24-.31.49-.46.73s-.31.49-.46.73c-.15.24-.31.49-.46.73-.15.24-.31.49-.46.73-.15.24-.31.49-.46.73-.15.24-.31.49-.46.73-.15.24-.3.49-.45.73s-.3.49-.45.73c-.15.25-.3.49-.45.73s-.3.49-.45.73c-.15.24-.3.49-.45.73-.15.24-.3.49-.45.73-.15.25-.3.49-.45.73-.15.24-.3.49-.45.73-.15.24-.3.49-.45.73-.15.24-.29.49-.44.73-.15.25-.3.49-.44.73s-.29.49-.44.73c-.15.25-.3.49-.44.73-.15.25-.29.49-.44.74-.15.24-.29.49-.44.74-.15.24-.29.49-.44.73-.15.25-.29.49-.44.73-.15.25-.29.49-.44.74-.15.24-.29.49-.44.74-.15.24-.29.49-.44.74-.15.24-.29.49-.44.74-.15.24-.29.49-.44.74-.15.25-.29.49-.44.74-.15.25-.29.49-.44.74-.15.25-.29.49-.44.74-.15.25-.29.49-.44.74-.15.25-.29.49-.43.74-.15.25-.29.49-.44.74-.14.25-.29.49-.43.74s-.29.49-.43.74-.29.49-.43.74-.29.49-.43.74-.29.49-.43.74-.29.49-.43.74-.29.49-.43.74-.29.49-.43.74-.28.49-.43.74c-.14.25-.29.49-.43.74s-.28.49-.43.74c-.14.25-.29.5-.43.74-.14.25-.29.49-.43.74s-.28.49-.43.74c-.14.25-.29.49-.43.74s-.28.49-.43.74c-.14.25-.29.49-.43.74s-.28.49-.42.74-.28.5-.42.74c-.14.25-.28.49-.43.74-.14.25-.29.49-.43.74s-.28.5-.42.74c-.14.25-.28.5-.42.74-.14.25-.28.5-.43.74-.14.25-.28.5-.42.74-.14.25-.28.5-.42.74-.14.25-.29.5-.42.74l-.42.75-.42.75c-.14.25-.29.5-.42.75l-.42.75c-.14.25-.29.5-.42.75-.14.25-.29.5-.42.75l-.42.75-.42.75-.42.75-.42.75-.42.75-.42.75-.42.75-.42.75-.42.75c-.14.25-.29.5-.42.75l-.42.75c-.14.25-.28.5-.43.75l-.42.75-.42.75-.42.75c-.14.25-.28.5-.42.76-.14.25-.29.5-.43.75l-.42.75c-.14.25-.29.5-.42.76-.14.25-.29.5-.43.75s-.28.5-.42.76c-.14.25-.28.5-.42.76-.14.25-.28.5-.43.76-.14.25-.29.5-.43.76-.14.25-.29.5-.43.76-.14.25-.28.5-.43.76-.14.25-.29.5-.43.76-.14.25-.28.5-.43.76-.14.25-.29.5-.43.76-.14.25-.29.51-.43.76s-.29.5-.43.76c-.14.25-.29.51-.43.76-.15.25-.29.51-.43.76s-.28.51-.43.76c-.14.25-.28.51-.43.76-.14.25-.28.51-.43.76s-.29.51-.43.76-.29.51-.44.76c-.14.25-.29.51-.43.77-.14.25-.29.51-.43.76-.15.25-.29.51-.44.77-.14.25-.29.51-.44.77-.15.25-.29.51-.44.77-.14.25-.29.51-.44.77-.15.26-.29.51-.44.77-.14.25-.29.51-.44.77-.15.26-.29.51-.44.77-.15.26-.29.51-.44.77-.15.26-.29.51-.44.77-.14.25-.29.51-.44.77-.15.26-.29.51-.44.77-.15.26-.29.51-.44.77-.15.26-.29.51-.44.77-.15.26-.29.52-.44.77-.15.26-.29.51-.44.77s-.3.52-.44.77c-.15.26-.3.52-.45.77-.15.26-.3.52-.45.77-.15.26-.29.52-.44.78-.15.26-.3.52-.45.77-.15.26-.3.52-.45.78s-.3.52-.45.78-.3.52-.45.78c-.15.26-.3.52-.45.78-.15.26-.3.52-.45.78-.15.26-.3.52-.45.78-.15.26-.3.52-.45.78-.15.26-.3.52-.46.78-.15.26-.3.52-.46.78-.15.26-.3.52-.46.78-.15.26-.3.52-.46.78-.15.26-.31.52-.46.78-7.49,12.62-14.98,25.25-22.4,37.92-1.44,2.47-2.92,4.99-4.67,7.26-.04.05-.08.11-.12.16-.04.05-.08.11-.12.16s-.08.11-.12.16c-.04.05-.08.1-.12.16-.04.05-.08.11-.12.16-.04.05-.08.1-.12.15s-.08.11-.12.16c-.04.05-.08.11-.12.15-.04.05-.08.11-.12.15-.04.05-.08.11-.12.15-.04.05-.08.1-.12.15s-.08.1-.12.15-.08.1-.12.15-.08.1-.13.15-.09.1-.13.15-.08.1-.12.15-.08.1-.12.15-.08.1-.13.14c-.04.05-.09.1-.13.15s-.08.09-.13.14c-.05.05-.09.1-.13.15s-.09.1-.13.14-.09.09-.13.14c-.04.05-.08.1-.13.14-.04.05-.09.09-.13.14-.04.04-.09.09-.13.14-.04.04-.09.09-.13.14-.04.04-.09.09-.13.13-.04.05-.09.09-.13.14-.04.04-.09.09-.13.13-.04.05-.09.09-.13.13-.04.05-.09.09-.13.13s-.09.09-.13.13-.09.09-.13.13-.09.09-.13.13c-.04.05-.09.09-.13.13-.05.04-.09.09-.13.13-.05.04-.09.09-.13.13s-.09.08-.13.12c-.04.05-.09.09-.14.13-.04.04-.09.08-.13.12-.05.04-.09.08-.14.12s-.09.08-.14.12-.09.08-.14.12-.09.08-.14.12-.09.07-.14.11c-.05.04-.09.08-.14.11-.05.04-.1.08-.14.11-.05.04-.09.07-.14.11-.04.04-.09.07-.14.11s-.09.07-.14.11c-.04.04-.09.07-.14.11-.05.04-.09.07-.14.11-.05.04-.09.07-.14.11s-.1.07-.15.1c-.04.04-.09.07-.14.1-.04.03-.09.07-.14.1s-.1.07-.15.1-.1.07-.15.1-.1.06-.15.09-.1.07-.15.09c-.05.03-.1.06-.15.09s-.1.06-.15.09-.1.06-.15.09-.1.06-.15.09-.1.06-.15.09-.1.06-.15.09-.1.05-.15.08-.1.05-.15.08-.1.06-.15.08-.1.05-.15.08-.1.05-.15.08c-.05.02-.1.05-.15.07-.05.02-.1.05-.15.07s-.1.04-.15.07-.1.05-.15.07c-.05.02-.1.04-.15.07s-.11.05-.16.07c-.05.02-.11.05-.15.07-.05.02-.11.04-.16.06s-.1.04-.15.06-.11.04-.16.06-.11.04-.16.05c-.05.02-.11.04-.16.05-.05.02-.11.04-.16.05-.05.02-.11.03-.16.05s-.11.03-.16.05-.11.03-.16.04-.11.03-.16.04-.11.03-.16.04-.11.03-.16.04-.11.02-.16.04c-.05.01-.11.02-.17.03-.05.01-.11.02-.16.03-.06,0-.11.02-.16.03-.06.01-.11.02-.17.03-.05,0-.11.02-.17.02s-.11.02-.17.02c-.05,0-.11.02-.17.02s-.11.01-.17.02c-.06,0-.11.02-.17.02s-.11,0-.17.01c-.05,0-.11,0-.17.01-.06,0-.11,0-.17.01h-1.39c-.06,0-.11,0-.18-.01-.06,0-.12-.01-.18-.02-19.12-1.99-11.24-26.43-6.79-37.56.02-.06.05-.12.07-.18.02-.06.05-.11.07-.17.02-.06.05-.11.07-.17.02-.06.05-.12.07-.18.02-.06.05-.11.07-.17.02-.06.05-.11.08-.17.02-.06.05-.11.07-.17.02-.06.05-.11.07-.17.02-.06.05-.11.07-.17.02-.05.05-.11.07-.16.03-.05.05-.11.08-.16.02-.06.05-.11.07-.16.02-.05.05-.11.07-.16.02-.05.05-.11.07-.16.02-.05.05-.11.07-.16.02-.05.05-.11.07-.16s.05-.11.07-.15c.02-.05.05-.11.07-.15.02-.05.05-.11.07-.15.02-.05.04-.11.07-.16.02-.05.05-.1.07-.15.02-.05.05-.1.07-.15.02-.05.05-.1.07-.15.02-.05.05-.1.07-.15.02-.05.05-.1.07-.15.02-.05.05-.1.07-.15.02-.05.05-.1.07-.14.02-.05.05-.09.07-.14.02-.05.05-.09.07-.14.02-.05.04-.09.07-.14.02-.05.04-.09.07-.14.02-.05.05-.09.07-.14.02-.05.04-.09.07-.13.02-.05.05-.09.07-.13.02-.04.05-.09.07-.13.02-.05.04-.09.07-.13.02-.04.04-.09.07-.13.02-.04.04-.08.06-.13.02-.04.04-.09.06-.13s.04-.08.06-.12.04-.08.06-.12.04-.08.06-.12.04-.08.06-.12.04-.08.06-.12.04-.08.06-.12.04-.08.06-.11c.09-.18.18-.35.26-.52.09-.17.18-.34.26-.52s.18-.35.26-.52c.09-.18.18-.35.26-.52s.18-.34.26-.52c.09-.17.18-.35.26-.52.09-.17.18-.34.26-.52.09-.17.18-.34.26-.52s.18-.35.26-.52c.09-.17.18-.35.27-.52.09-.17.18-.35.27-.52.09-.17.18-.35.27-.52.09-.17.18-.35.27-.52.09-.17.18-.35.26-.52.09-.17.18-.35.27-.52.09-.17.18-.35.27-.52s.18-.34.27-.52c.09-.17.18-.34.27-.52.09-.17.18-.34.27-.52.09-.17.18-.34.27-.52.09-.17.18-.34.27-.52.09-.17.18-.34.27-.52.09-.17.18-.34.27-.52.09-.17.18-.34.27-.52.09-.17.18-.34.27-.52s.18-.34.27-.52.18-.34.27-.51.18-.35.27-.52.18-.34.27-.52c.09-.17.18-.34.27-.52.09-.17.18-.34.27-.51s.18-.35.27-.52.18-.34.27-.52c.09-.17.18-.34.27-.51s.18-.34.28-.51c.09-.17.18-.35.27-.52.09-.17.18-.34.27-.51s.18-.34.27-.51.18-.34.27-.52c.09-.17.19-.34.28-.51s.18-.34.28-.51c.09-.17.18-.34.27-.52.09-.17.18-.34.28-.51.09-.17.18-.34.28-.51.09-.17.18-.34.27-.52.09-.17.19-.34.28-.51.09-.17.19-.34.28-.51.09-.17.19-.34.28-.52s.18-.34.28-.51c.09-.17.18-.34.28-.51.09-.17.18-.34.28-.51.09-.17.18-.34.28-.51.09-.17.19-.34.28-.52.09-.17.19-.34.28-.51.09-.17.19-.34.28-.51.09-.17.18-.34.28-.51.09-.17.18-.34.28-.51.09-.17.19-.34.28-.51.09-.17.18-.34.28-.51.09-.17.19-.34.28-.51s.18-.34.28-.51c.09-.17.19-.34.28-.51.09-.17.19-.34.28-.51.09-.17.18-.34.28-.51.09-.17.18-.34.28-.51.09-.17.19-.34.28-.51.09-.17.19-.34.28-.51.09-.17.19-.34.28-.51.09-.17.19-.34.28-.51.09-.17.19-.34.28-.51s.19-.34.28-.51c.09-.17.18-.34.28-.51.09-.17.19-.34.28-.51.09-.17.19-.34.28-.51.09-.17.19-.34.28-.51.1-.17.19-.34.29-.51s.19-.34.28-.51c.09-.17.19-.34.28-.51.09-.17.19-.34.28-.51.09-.17.19-.34.28-.51.09-.17.19-.34.28-.51.09-.17.19-.34.28-.51.09-.17.19-.34.28-.51.09-.17.19-.34.28-.51.09-.17.19-.34.28-.51.09-.17.19-.34.28-.51.09-.17.19-.34.28-.51s.19-.34.29-.51c.09-.17.19-.34.28-.51.09-.17.19-.34.28-.51.09-.17.19-.34.28-.51s.19-.34.28-.51c.09-.17.19-.34.29-.51.09-.17.19-.34.28-.51.09-.17.19-.34.28-.51.09-.17.19-.34.28-.51.09-.17.19-.34.29-.51.09-.17.19-.34.28-.5.09-.17.19-.34.28-.51.09-.17.19-.34.28-.5.09-.17.19-.34.29-.5.09-.17.19-.34.28-.5.1-.17.19-.34.28-.5.1-.17.19-.34.29-.5.09-.17.19-.34.28-.5.09-.17.19-.33.28-.5.09-.17.19-.34.28-.5.1-.17.19-.34.29-.5.09-.17.19-.34.28-.5.09-.17.19-.33.29-.5.09-.17.19-.34.28-.5.1-.17.19-.33.28-.5.09-.17.19-.34.29-.5.09-.17.19-.33.29-.5.09-.17.19-.34.28-.5.09-.17.19-.33.29-.5.09-.17.19-.33.29-.5.09-.17.19-.33.28-.5.09-.17.19-.33.28-.5.09-.17.19-.33.29-.5.09-.17.19-.33.29-.5.09-.17.19-.33.28-.5.1-.17.19-.33.29-.5.1-.17.19-.33.29-.5.09-.16.19-.33.28-.5.09-.17.19-.33.29-.5.09-.17.19-.33.28-.5.1-.17.19-.33.28-.5.09-.16.19-.33.29-.5.09-.17.19-.33.28-.5.09-.17.19-.33.28-.5.09-.16.19-.33.28-.5.09-.17.19-.33.29-.5.09-.17.19-.33.28-.5.09-.16.19-.33.28-.5.09-.17.19-.33.28-.49.09-.16.19-.33.29-.5.09-.17.19-.33.28-.49.09-.16.19-.33.29-.5.09-.17.19-.33.28-.49.09-.16.19-.33.29-.49.09-.17.19-.33.28-.49.09-.16.19-.33.29-.49.09-.17.19-.33.28-.49.09-.16.19-.33.28-.49.09-.16.19-.33.28-.49.09-.16.19-.33.28-.49.1-.16.19-.33.29-.49.09-.16.19-.33.28-.49.09-.16.19-.33.28-.49.09-.16.19-.33.28-.49.09-.16.19-.33.29-.49.09-.17.19-.33.28-.49.09-.16.19-.33.28-.49.09-.16.19-.33.28-.49.09-.16.19-.33.28-.49.09-.16.19-.33.28-.49.09-.16.19-.33.28-.49.09-.16.19-.33.28-.49.09-.16.19-.33.28-.49.09-.16.19-.33.28-.49.09-.16.19-.33.28-.49.09-.16.19-.33.28-.49.09-.16.19-.33.28-.49.09-.16.19-.32.28-.48.09-.16.19-.33.28-.49.09-.16.19-.32.28-.49.09-.16.18-.32.28-.48.09-.16.18-.32.28-.48.09-.16.19-.33.28-.49.09-.16.19-.32.28-.48.09-.16.19-.32.28-.48.09-.16.19-.32.28-.48.09-.16.18-.32.28-.48.09-.16.19-.32.28-.48.09-.16.18-.32.28-.48.09-.16.19-.32.28-.48.09-.16.19-.32.28-.48.09-.16.19-.32.28-.48.09-.16.18-.32.28-.48.09-.16.18-.32.28-.48.09-.16.19-.32.28-.48.09-.16.18-.32.28-.48.09-.16.18-.32.28-.48.09-.16.19-.32.28-.48.09-.16.19-.32.28-.48.09-.16.19-.32.28-.48.09-.16.19-.32.28-.48.09-.16.18-.32.28-.48.09-.16.18-.32.27-.48s.18-.32.28-.48.18-.32.28-.47.18-.32.28-.47c.09-.16.18-.32.28-.48.09-.16.18-.32.27-.47.09-.16.19-.32.28-.47.09-.16.18-.32.28-.47.09-.16.18-.32.27-.47.09-.16.18-.32.27-.47.09-.16.18-.32.27-.47.09-.16.18-.32.27-.47s.18-.31.27-.47.18-.32.27-.47c.09-.16.18-.31.27-.47s.18-.32.27-.47c.09-.16.18-.31.27-.47s.18-.31.27-.47c.09-.15.18-.31.27-.47s.18-.31.27-.47.18-.31.27-.47.18-.31.27-.47.18-.31.27-.47.18-.31.27-.47.18-.31.27-.47.18-.31.27-.47c.09-.15.18-.31.27-.46.09-.15.18-.31.27-.46.09-.16.18-.31.27-.46l.27-.46c.09-.15.18-.31.27-.46s.18-.31.27-.46c.09-.15.18-.31.27-.46s.18-.31.27-.46c.09-.15.18-.31.26-.46.09-.15.18-.31.26-.46.09-.15.18-.31.27-.46.09-.15.18-.31.27-.46.09-.15.18-.31.26-.46s.18-.31.26-.46c.09-.15.18-.31.27-.46.09-.15.18-.31.26-.46.09-.15.18-.3.26-.46.09-.15.18-.31.26-.46.09-.15.18-.3.26-.46.09-.15.18-.3.26-.45.09-.15.18-.31.26-.46.09-.15.18-.3.26-.46.09-.15.18-.3.26-.45.09-.15.18-.3.26-.45s.18-.3.26-.45.18-.3.26-.45.18-.3.26-.45.18-.3.26-.45.18-.3.26-.45.18-.3.26-.45c.09-.15.18-.3.26-.45.09-.15.18-.3.26-.45.09-.15.18-.3.26-.45.09-.15.18-.3.26-.45.09-.15.17-.3.26-.45s.18-.3.26-.45c.09-.15.17-.3.26-.45s.18-.3.26-.45c.09-.15.17-.3.26-.45s.17-.3.26-.45.17-.3.25-.44c.14-.24.28-.48.42-.72s.28-.48.42-.72.28-.48.42-.72.28-.48.42-.73c.14-.24.28-.48.42-.72s.28-.48.42-.73c.14-.24.28-.48.42-.73.14-.24.28-.49.42-.73s.28-.48.42-.73c.14-.24.28-.48.42-.73.14-.24.28-.48.42-.73.14-.24.28-.48.42-.73.14-.24.28-.49.42-.73.14-.24.28-.49.42-.73s.29-.49.43-.73c.14-.24.28-.49.42-.73.14-.24.28-.49.42-.73.14-.24.28-.49.43-.73.14-.24.29-.49.43-.73.14-.24.29-.49.43-.73l.43-.73c.14-.24.28-.49.43-.73.14-.24.29-.49.43-.73.14-.24.29-.49.43-.73.14-.24.29-.49.43-.73.14-.24.29-.49.43-.73s.29-.49.44-.73c.14-.24.28-.49.43-.73s.29-.49.44-.73c.15-.24.29-.49.44-.73.15-.24.29-.49.44-.73.15-.24.29-.49.44-.73.14-.24.29-.49.44-.73.15-.24.29-.49.44-.73.15-.24.29-.49.44-.73.15-.24.29-.49.44-.73.15-.25.29-.49.44-.73.15-.24.3-.49.44-.73.15-.24.29-.49.44-.73s.29-.49.44-.73c.15-.24.3-.49.44-.73.15-.24.3-.49.45-.73.15-.24.3-.49.45-.73.15-.24.3-.49.45-.73.15-.24.3-.49.45-.73.15-.24.3-.49.45-.73s.3-.49.45-.73c.15-.24.3-.49.45-.73.15-.24.3-.49.45-.73s.3-.49.45-.73c.15-.24.3-.49.46-.73.15-.24.3-.49.46-.73.15-.24.3-.49.45-.73.15-.24.31-.49.46-.73.15-.24.31-.48.46-.73.15-.24.3-.48.46-.73.16-.24.31-.48.46-.73.15-.24.31-.48.46-.72.15-.24.31-.48.46-.73.15-.24.31-.48.46-.72.15-.24.31-.48.46-.72.15-.24.31-.48.47-.72.15-.24.31-.48.46-.72s.31-.48.47-.72c.16-.24.31-.48.47-.72s.31-.48.47-.72c.16-.24.31-.48.47-.72.16-.24.31-.48.47-.72.16-.24.31-.48.47-.72.16-.24.32-.48.48-.72.15-.24.31-.48.47-.72.16-.24.32-.48.48-.72s.32-.48.48-.71c.16-.24.32-.47.48-.71s.32-.48.48-.71c.16-.24.32-.47.48-.71s.32-.47.48-.71.32-.48.48-.71c.16-.24.32-.47.48-.71s.32-.47.48-.71.33-.47.49-.71.32-.47.48-.71.33-.47.49-.7c.16-.24.33-.47.49-.7.16-.23.33-.47.49-.7.16-.23.33-.47.49-.7.16-.23.33-.47.49-.7.17-.23.33-.46.5-.7.17-.23.33-.47.5-.7.17-.23.33-.46.5-.7.16-.23.33-.46.5-.69s.33-.46.5-.69.34-.46.5-.69c.17-.23.34-.46.5-.69.17-.23.33-.46.5-.69s.34-.46.5-.69c.17-.23.34-.46.51-.69s.34-.46.51-.69.34-.46.51-.68l.51-.68c.17-.23.34-.46.51-.68s.34-.45.52-.68c.17-.23.34-.45.52-.68.17-.23.34-.45.52-.68s.35-.45.52-.68.35-.45.52-.67c.17-.23.35-.45.52-.67s.35-.45.52-.67c.18-.22.35-.45.53-.67s.35-.45.53-.67.35-.45.52-.67c.18-.22.35-.44.53-.66s.35-.44.53-.66c.17-.22.35-.44.53-.66s.35-.44.53-.66.36-.44.54-.66.35-.44.53-.66.36-.44.54-.65c.18-.22.36-.43.54-.65s.36-.43.54-.65.36-.43.54-.65.36-.43.55-.65c.18-.21.36-.43.55-.64.18-.22.37-.43.55-.64s.37-.43.55-.64.37-.43.55-.64.37-.43.55-.64.37-.42.55-.63c.18-.21.37-.42.56-.63.18-.21.37-.42.55-.63.19-.21.37-.42.56-.63.19-.21.37-.42.56-.63.19-.21.37-.42.56-.62.19-.21.37-.41.57-.62s.38-.41.57-.62.38-.41.57-.62.38-.41.57-.61c.19-.21.38-.41.57-.61s.38-.41.57-.61.38-.41.57-.61.38-.41.58-.6c.19-.2.38-.4.58-.6.2-.2.39-.4.58-.6.19-.2.39-.4.58-.6.2-.2.39-.4.59-.59.19-.2.39-.4.58-.59.2-.2.39-.39.59-.59s.39-.39.59-.59.39-.39.59-.59.39-.39.59-.58c.2-.2.39-.39.59-.58.2-.19.4-.39.6-.58.2-.19.4-.38.6-.58.2-.19.4-.38.6-.57s.4-.38.6-.57.41-.38.61-.57.4-.38.61-.56c.2-.19.41-.38.61-.56.2-.19.41-.37.61-.56.2-.19.41-.37.61-.56.2-.19.41-.37.61-.55.2-.19.41-.37.61-.55.21-.18.42-.37.62-.55.21-.18.42-.36.62-.55.21-.18.41-.36.62-.54s.42-.36.63-.54.42-.36.63-.54.42-.36.63-.53c.21-.18.42-.35.63-.53s.42-.35.64-.53c.21-.18.42-.35.63-.52.21-.18.42-.35.64-.52.21-.17.42-.35.63-.52.21-.17.43-.35.64-.52.21-.17.42-.34.64-.51s.43-.34.65-.51.43-.34.65-.51.43-.34.65-.5c.22-.17.44-.33.65-.5.22-.17.44-.33.66-.5.22-.16.44-.33.66-.49.22-.16.44-.33.66-.49.22-.16.44-.33.66-.49.22-.16.44-.33.66-.49.22-.16.44-.32.66-.48.22-.16.44-.32.67-.48.22-.16.44-.32.67-.47.22-.16.45-.32.67-.47.22-.16.45-.31.67-.47.22-.15.45-.31.68-.46s.45-.31.68-.46.45-.31.68-.46c.23-.15.46-.31.68-.46.23-.15.46-.3.68-.45.23-.15.46-.3.68-.45s.46-.3.69-.44c.23-.15.46-.3.69-.44.23-.15.46-.29.69-.44s.46-.29.69-.43.47-.29.7-.43.47-.29.7-.43.47-.28.7-.42.47-.28.7-.42c.24-.14.47-.28.71-.42s.47-.27.71-.41.47-.27.71-.41c.24-.13.48-.27.72-.4s.48-.27.72-.4.48-.26.72-.4.48-.26.72-.39.48-.26.72-.39.49-.26.73-.38c.24-.13.48-.26.73-.38.24-.13.48-.25.73-.38.24-.13.49-.25.73-.37s.49-.25.74-.37c.24-.12.49-.25.74-.37.24-.12.49-.24.74-.36s.5-.24.74-.36.5-.24.75-.35c.25-.12.5-.23.75-.35.25-.12.5-.23.75-.35.25-.12.5-.23.75-.34.25-.11.5-.23.76-.34.25-.11.5-.22.76-.33.25-.11.5-.22.76-.33s.51-.22.77-.33.51-.22.77-.32.51-.21.77-.32.51-.21.77-.31.52-.21.78-.31.51-.2.77-.3.52-.2.78-.3.52-.2.78-.3.52-.2.79-.29c.26-.1.52-.19.79-.29.26-.09.53-.19.79-.28s.53-.19.79-.28.53-.18.8-.27c.26-.09.53-.18.8-.27,4.37-1.45,8.79-2.39,13.23-2.85,4.44-.47,8.9-.48,13.33-.07l-.56-.12v-.04Z"/>
    <path class="st0" d="M879.71,4.83c.82-.09,1.64-.16,2.46-.21.81-.06,1.62-.1,2.43-.13s1.61-.04,2.4-.04,1.59.01,2.38.04c.79.03,1.57.07,2.35.12.78.05,1.56.12,2.33.2s1.54.17,2.3.27,1.52.22,2.27.35c.76.13,1.5.27,2.25.42s1.49.32,2.23.49c.74.18,1.47.37,2.2.57.73.2,1.46.41,2.18.63.72.22,1.44.46,2.16.7.71.24,1.42.5,2.13.76.7.26,1.41.54,2.1.82.7.28,1.39.58,2.08.89s1.38.62,2.06.94c.68.33,1.36.66,2.03,1,.68.34,1.35.7,2.01,1.06.67.36,1.33.73,1.99,1.11s1.31.77,1.97,1.16c.65.39,1.3.8,1.95,1.21.64.41,1.29.83,1.92,1.26.64.43,1.27.86,1.9,1.3.63.44,1.26.89,1.88,1.35.62.46,1.24.92,1.86,1.39s1.23.95,1.84,1.43c.61.48,1.21.97,1.81,1.47s1.2,1,1.79,1.51c.59.51,1.18,1.02,1.77,1.54s1.17,1.05,1.75,1.57c.58.53,1.16,1.07,1.73,1.61s1.14,1.09,1.71,1.64,1.13,1.1,1.69,1.66,1.12,1.12,1.68,1.69c.55.57,1.1,1.14,1.65,1.72.55.58,1.09,1.16,1.64,1.74.54.58,1.08,1.17,1.62,1.76s1.07,1.18,1.6,1.78c.53.6,1.06,1.19,1.58,1.79.52.6,1.04,1.2,1.56,1.81s1.03,1.21,1.54,1.82c.51.61,1.02,1.22,1.52,1.83s1.01,1.23,1.51,1.84c.5.62,1,1.23,1.49,1.85.5.62.98,1.24,1.47,1.86s.97,1.24,1.45,1.86c.48.62.96,1.24,1.43,1.86.48.62.95,1.24,1.42,1.86s.94,1.25,1.4,1.87c.46.62.93,1.24,1.38,1.86.46.62.92,1.24,1.38,1.86s.9,1.24,1.36,1.85c.45.62.9,1.23,1.34,1.84l1.32,1.83c.44.61.88,1.21,1.31,1.82.43.6.86,1.21,1.29,1.8.43.6.85,1.2,1.28,1.79.42.59.84,1.18,1.26,1.77s.83,1.17,1.25,1.75.83,1.16,1.23,1.73c.41.57.82,1.14,1.22,1.71.4.57.81,1.13,1.2,1.68.4.56.8,1.11,1.19,1.66.2.27.4.55.61.84.2.28.42.57.63.87.22.3.44.59.66.9.22.3.45.61.68.92s.46.63.7.95.48.65.72.97c.24.33.49.66.74,1s.5.68.76,1.02.52.69.78,1.04.53.71.8,1.06c.27.36.54.72.81,1.08.27.37.55.73.83,1.1.28.37.55.75.84,1.12.28.38.56.76.85,1.14.28.38.57.77.85,1.16.29.39.58.78.87,1.17s.58.79.87,1.18c.29.4.59.8.88,1.2.29.4.59.8.88,1.21.3.41.59.81.89,1.22s.59.82.89,1.23.59.83.89,1.24c.3.41.59.83.89,1.25s.59.83.89,1.26c.3.42.59.84.89,1.26.29.42.59.84.88,1.27.29.42.59.85.87,1.27.29.42.58.85.87,1.27.29.43.58.85.86,1.27.29.43.57.85.85,1.28.28.43.57.85.84,1.28.28.43.55.85.83,1.28s.55.85.82,1.27.54.85.8,1.27c.27.42.53.84.79,1.27.26.42.52.84.77,1.26s.5.84.75,1.25c.25.42.49.83.74,1.25.24.42.48.83.71,1.24.24.41.47.82.69,1.23.6,1.07,1.2,2.18,1.8,3.31s1.18,2.29,1.74,3.47c3.37,7.19,7.03,22.99-2.67,27.24-1.37.6-3.17.8-4.97.72s-3.61-.42-4.99-.89c-1.36-.47-2.72-1.09-4.05-1.8s-2.62-1.53-3.85-2.38-2.39-1.75-3.45-2.64-2.02-1.77-2.86-2.59c-.28-.27-.56-.55-.83-.83-.28-.28-.55-.56-.83-.84-.27-.28-.55-.57-.82-.85-.27-.29-.54-.57-.81-.86s-.54-.58-.8-.87c-.27-.29-.53-.59-.79-.88-.26-.29-.52-.59-.78-.88-.26-.3-.51-.59-.76-.89-.26-.3-.5-.59-.75-.89s-.5-.59-.74-.88-.49-.59-.72-.88c-.24-.29-.48-.58-.71-.88-.23-.29-.47-.58-.7-.87-.23-.29-.46-.57-.68-.85s-.44-.57-.66-.84c-.22-.28-.43-.56-.64-.83s-.42-.55-.62-.82-.41-.54-.6-.8c-.2-.26-.39-.53-.59-.78s-.38-.51-.56-.76-.36-.49-.54-.74-.35-.48-.52-.71c-.17-.23-.33-.46-.49-.69-.16-.22-.32-.44-.47-.65-.18-.26-.37-.52-.55-.78s-.36-.51-.54-.77c-.18-.25-.36-.51-.53-.75-.18-.25-.35-.5-.53-.74-.17-.25-.34-.49-.51-.73-.17-.24-.33-.48-.5-.72s-.33-.47-.49-.71c-.16-.23-.33-.47-.48-.7-.16-.23-.32-.46-.48-.69-.15-.23-.31-.45-.46-.67s-.31-.45-.46-.67-.3-.44-.45-.66-.29-.43-.44-.65c-.15-.21-.29-.43-.44-.64-.14-.21-.28-.42-.42-.63-.14-.21-.28-.42-.42-.62-.14-.21-.28-.41-.41-.61-.14-.2-.27-.4-.41-.6-.13-.2-.27-.4-.4-.6s-.26-.39-.39-.59-.26-.39-.39-.58-.26-.38-.38-.58c-.13-.19-.25-.38-.38-.57s-.25-.38-.37-.57c-.13-.19-.25-.37-.37-.56-.12-.19-.24-.37-.37-.55s-.24-.37-.36-.55-.24-.36-.36-.55c-.12-.18-.24-.36-.35-.54-.12-.18-.24-.36-.35-.54-.12-.18-.24-.36-.35-.53-.12-.18-.24-.35-.35-.53s-.23-.35-.35-.53-.23-.35-.35-.53c-.11-.17-.23-.35-.35-.52-.11-.18-.23-.35-.34-.52-.11-.18-.23-.35-.34-.52-.11-.18-.23-.35-.34-.52-.11-.17-.23-.35-.34-.52-.11-.17-.23-.34-.34-.52-.12-.17-.23-.34-.35-.52-.11-.17-.23-.35-.34-.52-.11-.17-.23-.35-.35-.52-.11-.17-.23-.35-.35-.52-.11-.17-.23-.35-.35-.52s-.23-.35-.35-.52-.23-.35-.35-.52c-.12-.18-.24-.35-.35-.53s-.24-.35-.36-.53-.24-.35-.36-.53-.24-.36-.37-.54-.24-.36-.37-.54c-.12-.18-.24-.36-.37-.54s-.25-.36-.38-.55c-.13-.18-.25-.37-.38-.55-.13-.19-.26-.37-.39-.56-.13-.19-.26-.37-.39-.56-.13-.19-.26-.38-.4-.57s-.27-.38-.4-.57-.27-.39-.41-.58c-.14-.2-.28-.39-.42-.59-.14-.2-.28-.39-.42-.59-.14-.2-.28-.4-.43-.6-.14-.2-.29-.4-.44-.61-.28-.39-.56-.79-.85-1.18-.29-.4-.57-.8-.86-1.2-.29-.41-.58-.81-.87-1.23-.29-.41-.59-.82-.88-1.24s-.59-.84-.89-1.26c-.29-.42-.59-.84-.9-1.27-.3-.43-.6-.85-.91-1.29-.31-.43-.61-.86-.92-1.3-.31-.43-.62-.87-.93-1.31-.31-.44-.63-.87-.94-1.32-.32-.44-.63-.88-.95-1.32s-.64-.89-.96-1.33c-.32-.45-.65-.89-.97-1.34-.33-.45-.65-.89-.98-1.34-.33-.45-.66-.9-.99-1.34s-.67-.9-1.01-1.35-.68-.9-1.02-1.34c-.34-.45-.68-.9-1.03-1.34-.35-.45-.69-.89-1.04-1.34s-.7-.89-1.05-1.33-.71-.89-1.06-1.33c-.36-.44-.72-.88-1.08-1.32-.36-.44-.72-.88-1.09-1.31-.36-.44-.73-.87-1.1-1.3s-.74-.87-1.12-1.29c-.37-.43-.75-.86-1.13-1.28-.38-.43-.76-.85-1.14-1.27s-.77-.84-1.15-1.25-.78-.83-1.17-1.24c-.39-.41-.79-.81-1.18-1.22-.39-.4-.79-.8-1.2-1.2-.4-.4-.8-.79-1.21-1.18-.41-.39-.81-.78-1.22-1.16s-.82-.76-1.24-1.13c-.42-.37-.83-.75-1.25-1.11-.42-.37-.85-.73-1.27-1.08-.42-.36-.85-.71-1.28-1.06-.43-.35-.86-.69-1.29-1.03-.44-.34-.87-.67-1.31-1s-.88-.65-1.33-.97c-.44-.32-.89-.63-1.34-.93-.45-.31-.9-.61-1.35-.9-.46-.3-.91-.58-1.38-.87-.46-.28-.92-.56-1.38-.83s-.94-.53-1.4-.79c-.47-.26-.94-.51-1.42-.75s-.95-.48-1.44-.71c-.48-.23-.97-.45-1.45-.67-.49-.22-.98-.42-1.47-.62s-.99-.39-1.49-.58c-.5-.19-1-.36-1.5-.53s-1.01-.33-1.52-.48c-.51-.15-1.02-.3-1.54-.44-.51-.14-1.03-.27-1.55-.39-.52-.12-1.04-.23-1.57-.34-.53-.1-1.06-.2-1.59-.28-.53-.08-1.07-.16-1.61-.23s-1.08-.13-1.62-.17c-.55-.05-1.09-.09-1.64-.12s-1.1-.05-1.66-.06h-1.68c-.56,0-1.13.03-1.7.06-.57.03-1.14.07-1.72.13s-1.15.11-1.74.19c-.46.06-.92.12-1.37.2-.46.08-.91.16-1.36.25s-.9.19-1.35.29c-.45.1-.9.22-1.34.34-.45.12-.89.25-1.33.38s-.89.27-1.33.42c-.44.15-.88.3-1.32.46s-.88.33-1.31.5-.87.36-1.3.54c-.43.19-.86.38-1.29.58s-.85.41-1.28.62c-.43.21-.85.43-1.27.65-.42.22-.84.45-1.26.69-.42.23-.84.47-1.25.72-.42.25-.83.5-1.24.75-.41.26-.82.52-1.23.78-.41.27-.82.54-1.22.81-.41.28-.81.56-1.21.84-.4.29-.8.57-1.2.87s-.8.6-1.19.9c-.4.3-.79.61-1.18.92-.39.31-.78.63-1.17.95-.39.32-.78.64-1.16.97-.39.33-.77.66-1.15.99s-.76.67-1.14,1.01-.76.69-1.13,1.03c-.38.35-.75.7-1.12,1.05s-.74.71-1.11,1.07-.74.72-1.1,1.08-.73.73-1.09,1.1c-.36.37-.72.74-1.08,1.11-.36.37-.72.75-1.07,1.13-.35.38-.71.76-1.06,1.14s-.7.76-1.05,1.15-.69.77-1.04,1.16c-.34.39-.69.78-1.03,1.17s-.68.78-1.02,1.17-.67.78-1.01,1.18c-.33.39-.67.79-1,1.18-.33.4-.66.79-.98,1.19-.33.4-.65.79-.97,1.19-.32.4-.64.8-.96,1.19-.32.4-.64.79-.95,1.19s-.63.8-.94,1.19c-.31.4-.62.79-.93,1.19s-.61.79-.92,1.19c-.3.39-.6.79-.91,1.18-.3.39-.6.79-.89,1.18-.3.39-.59.78-.88,1.17s-.58.78-.87,1.16c-.29.38-.57.77-.86,1.15-.28.38-.57.77-.85,1.14-.28.38-.56.76-.83,1.13-.27.38-.55.75-.82,1.12s-.54.74-.81,1.1c-.27.37-.54.73-.8,1.09-.26.36-.52.72-.79,1.08-.26.35-.52.71-.78,1.06s-.51.7-.76,1.04c-.25.34-.5.68-.75,1.02s-.49.67-.74,1c-.24.33-.49.66-.72.98-.24.32-.48.64-.71.96-.23.32-.47.63-.7.94-.14.19-.28.37-.42.56-.14.19-.28.37-.42.55-.14.19-.27.37-.41.55-.14.18-.27.37-.41.55-.14.18-.27.37-.41.55-.14.18-.27.36-.41.55-.14.18-.27.36-.41.55-.13.18-.27.36-.4.54s-.27.36-.4.54-.27.36-.4.54-.27.36-.4.54l-.39.54c-.13.18-.26.36-.4.54l-.39.54-.39.54-.39.54-.39.54-.39.54-.39.54-.39.54-.39.54-.39.54-.39.54-.39.54-.39.54c-.13.18-.26.36-.39.55-.13.18-.26.36-.39.55-.13.18-.26.37-.39.55s-.26.37-.39.55-.26.37-.39.55-.26.37-.4.55c-.13.19-.26.37-.4.56-.13.19-.26.37-.4.56-.13.19-.27.38-.4.56-.13.19-.27.38-.4.57s-.27.38-.4.57-.27.38-.41.57c-.13.19-.27.38-.41.58s-.27.38-.41.58c-.14.19-.27.39-.41.58-.14.2-.28.39-.42.59-.14.2-.28.39-.42.59-.14.2-.28.39-.42.59-.14.2-.28.4-.42.6-.14.2-.28.4-.43.6-.14.2-.29.4-.43.61-.14.2-.29.41-.44.61-.15.21-.29.41-.44.62-.15.21-.29.42-.44.62-.15.21-.3.42-.45.63s-.3.42-.45.63-.3.43-.46.64c-.15.22-.31.43-.46.65s-.31.43-.46.65-.31.44-.47.66c-.15.22-.31.44-.47.67s-.32.45-.48.67-.32.45-.48.68-.33.46-.49.69-.33.46-.49.69c-.17.23-.33.46-.5.7-.17.24-.34.47-.5.71-.17.24-.34.47-.51.71s-.34.48-.52.72c-.13.19-.27.37-.4.57-.13.19-.27.38-.41.58s-.27.39-.41.59c-.14.2-.27.4-.41.6-.14.2-.27.4-.41.61-.14.21-.27.41-.41.62-.14.21-.27.42-.41.62-.14.21-.28.42-.42.63s-.28.42-.42.64c-.14.21-.28.43-.42.65-.14.22-.28.43-.42.65-.14.22-.28.44-.43.66-.14.22-.29.44-.43.66s-.29.44-.43.66-.29.44-.43.66-.29.44-.44.67c-.15.22-.29.45-.44.67-.14.22-.29.45-.44.67s-.29.44-.44.67c-.15.22-.3.45-.45.67s-.3.44-.45.67c-.15.22-.3.44-.45.67-.15.22-.3.44-.45.66s-.3.44-.46.66-.31.44-.46.66-.31.43-.46.65-.31.43-.47.65c-.15.21-.31.43-.47.64s-.31.42-.47.63-.32.42-.48.63-.32.41-.48.62c-.16.2-.32.41-.48.61-.73.91-1.48,1.79-2.27,2.63-.79.84-1.6,1.63-2.44,2.38s-1.72,1.44-2.62,2.07-1.84,1.2-2.8,1.69c-.96.49-1.96.91-2.99,1.25-1.02.34-2.08.59-3.17.74-1.09.15-2.21.21-3.36.16-1.15-.05-2.33-.21-3.55-.48-1.34-.3-2.5-.73-3.51-1.28-1.01-.54-1.86-1.19-2.56-1.93-.71-.74-1.27-1.57-1.71-2.46-.44-.9-.76-1.86-.96-2.87-.21-1.01-.3-2.06-.31-3.14,0-1.08.08-2.18.25-3.29.16-1.11.41-2.21.71-3.3.3-1.09.66-2.16,1.07-3.19.14-.36.29-.73.45-1.1.15-.37.31-.74.48-1.11.16-.37.33-.74.51-1.12.17-.37.35-.75.53-1.12.18-.38.37-.75.56-1.13s.38-.76.58-1.14.4-.76.6-1.14c.2-.38.41-.76.62-1.14s.42-.76.64-1.14c.22-.38.43-.76.65-1.14.22-.38.44-.76.67-1.14.22-.38.45-.76.68-1.13.23-.38.46-.75.69-1.13s.46-.75.7-1.12c.23-.37.47-.74.7-1.11.24-.37.47-.74.71-1.11.24-.37.47-.73.71-1.1.24-.36.48-.72.71-1.08.24-.36.47-.72.71-1.07.24-.36.47-.71.71-1.06.23-.35.47-.7.7-1.04.23-.35.47-.69.7-1.03.23-.34.46-.67.69-1.01s.45-.66.68-.99c.23-.33.45-.65.67-.97s.44-.63.65-.94c.22-.31.43-.62.64-.92.21-.3.42-.6.62-.9s.4-.59.6-.87c.2-.29.39-.57.58-.84.19-.28.38-.55.56-.81.18-.27.36-.53.53-.79.41-.6.82-1.21,1.23-1.83s.83-1.24,1.25-1.87c.42-.63.84-1.27,1.27-1.91.43-.64.86-1.29,1.29-1.94s.87-1.31,1.31-1.98c.44-.67.88-1.33,1.33-2.01.45-.67.9-1.35,1.35-2.03.45-.68.91-1.37,1.36-2.07.46-.69.92-1.39,1.38-2.09s.93-1.4,1.4-2.11c.47-.71.95-1.42,1.42-2.13.48-.71.96-1.43,1.44-2.15s.97-1.44,1.46-2.17c.49-.73.98-1.45,1.48-2.18.49-.73,1-1.46,1.5-2.19s1.01-1.47,1.52-2.21,1.02-1.48,1.54-2.21c.52-.74,1.03-1.48,1.56-2.22.52-.74,1.05-1.48,1.58-2.22s1.06-1.48,1.6-2.23c.54-.74,1.07-1.49,1.62-2.23.54-.74,1.09-1.48,1.63-2.22.55-.74,1.1-1.48,1.65-2.22.56-.74,1.12-1.48,1.67-2.21.56-.74,1.13-1.47,1.69-2.21.57-.73,1.14-1.47,1.72-2.2s1.15-1.46,1.73-2.19c.58-.73,1.16-1.45,1.75-2.17.59-.72,1.18-1.44,1.77-2.16.59-.71,1.19-1.43,1.79-2.14s1.2-1.42,1.81-2.12,1.22-1.4,1.83-2.09,1.23-1.38,1.85-2.07,1.25-1.37,1.87-2.04c.63-.68,1.26-1.35,1.89-2.02.64-.67,1.27-1.33,1.91-1.99.64-.66,1.29-1.31,1.94-1.95.65-.65,1.3-1.29,1.95-1.92.66-.63,1.31-1.26,1.98-1.88.66-.62,1.33-1.24,2-1.84.67-.61,1.34-1.21,2.02-1.8s1.36-1.18,2.04-1.76,1.37-1.15,2.06-1.72c.69-.56,1.38-1.12,2.08-1.67s1.4-1.09,2.1-1.62c.7-.53,1.41-1.06,2.12-1.57s1.42-1.02,2.14-1.52c.72-.5,1.44-.98,2.16-1.46s1.45-.95,2.18-1.4c.73-.46,1.46-.91,2.2-1.35.74-.44,1.48-.87,2.23-1.29.74-.42,1.49-.83,2.24-1.22.75-.4,1.51-.78,2.27-1.16.76-.37,1.52-.74,2.29-1.09.77-.35,1.54-.69,2.31-1.02.77-.33,1.55-.64,2.33-.95s1.56-.6,2.35-.87c.79-.28,1.58-.55,2.37-.8.8-.25,1.59-.5,2.39-.72s1.61-.44,2.42-.65c.81-.2,1.62-.39,2.44-.56s1.63-.34,2.46-.48c.82-.14,1.65-.28,2.48-.39.83-.12,1.66-.22,2.5-.31h.13,0Z"/>
    <path class="st0" d="M1148.68,223.98c-.19-1.48-.44-2.96-.71-4.44-.28-1.48-.6-2.96-.95-4.44s-.73-2.96-1.13-4.44-.83-2.96-1.27-4.44c-.44-1.48-.9-2.95-1.36-4.43s-.94-2.95-1.41-4.43-.94-2.95-1.41-4.42c-.47-1.47-.93-2.94-1.37-4.41-.45-1.47-.88-2.93-1.29-4.4-.41-1.46-.8-2.93-1.16-4.39s-.68-2.92-.98-4.37c-.29-1.46-.55-2.91-.75-4.36-.21-1.45-.37-2.9-.48-4.34s-.17-2.89-.17-4.32.06-2.92.17-4.37.27-2.91.47-4.36.45-2.9.74-4.35c.29-1.45.61-2.89.96-4.33s.73-2.89,1.13-4.33.83-2.88,1.27-4.32c.44-1.44.89-2.88,1.36-4.31.46-1.43.93-2.87,1.4-4.3.47-1.43.94-2.87,1.4-4.3.46-1.43.92-2.87,1.36-4.3s.86-2.86,1.27-4.29.79-2.86,1.14-4.29.68-2.86.96-4.29c.29-1.43.54-2.86.74-4.29s.37-2.86.48-4.29.17-2.86.18-4.29c0-1.61-.06-3.22-.18-4.83-.12-1.6-.3-3.2-.52-4.79-.22-1.59-.5-3.18-.82-4.77-.32-1.58-.68-3.16-1.07-4.74-.39-1.57-.82-3.15-1.27-4.71-.46-1.57-.94-3.13-1.43-4.69-.5-1.56-1.02-3.12-1.54-4.68-.53-1.56-1.06-3.11-1.6-4.66-.54-1.55-1.08-3.1-1.62-4.65-.54-1.55-1.07-3.09-1.6-4.64-1.61-4.78-2.84-9.68-3.9-14.61-1.02-4.75-1.48-9.8-2.93-14.43-.59-1.87-1.55-3.47-2.76-4.87s-2.68-2.61-4.27-3.69c-.87-.59-1.8-1.16-2.76-1.66s-1.95-.94-2.95-1.29c-.76-.27-1.54-.48-2.33-.66-1.87-.41-3.83-.56-5.81-.56h-.28c-1.98.01-3.94.16-5.81.57-.79.17-1.57.39-2.33.66-1,.35-1.99.79-2.95,1.29s-1.88,1.06-2.76,1.66c-1.59,1.08-3.06,2.29-4.27,3.69-1.21,1.4-2.17,3-2.76,4.87-1.45,4.64-1.91,9.68-2.93,14.43-1.06,4.93-2.29,9.83-3.9,14.61-.52,1.55-1.06,3.09-1.6,4.64-.54,1.55-1.08,3.1-1.62,4.65-.54,1.55-1.08,3.11-1.6,4.66-.53,1.55-1.05,3.11-1.54,4.68-.5,1.56-.98,3.13-1.43,4.69-.46,1.57-.88,3.14-1.27,4.71s-.75,3.15-1.07,4.74-.59,3.17-.82,4.77c-.22,1.59-.4,3.19-.52,4.79s-.18,3.21-.18,4.83c0,1.43.06,2.86.18,4.29.11,1.43.28,2.86.48,4.29.21,1.43.46,2.86.74,4.29.29,1.43.61,2.86.96,4.29s.73,2.86,1.14,4.29.83,2.86,1.27,4.29c.44,1.43.9,2.86,1.36,4.3.46,1.43.93,2.87,1.4,4.3s.94,2.87,1.4,4.3c.46,1.44.92,2.87,1.36,4.31s.86,2.88,1.27,4.32c.4,1.44.78,2.88,1.13,4.33.35,1.44.67,2.89.96,4.33.28,1.45.53,2.9.74,4.35.2,1.45.37,2.9.47,4.36.11,1.45.17,2.91.17,4.37s-.06,2.88-.17,4.32-.28,2.89-.48,4.34c-.21,1.45-.46,2.9-.75,4.36-.29,1.45-.62,2.91-.98,4.37-.36,1.46-.74,2.92-1.16,4.39-.41,1.46-.84,2.93-1.29,4.4-.44,1.47-.9,2.94-1.37,4.41s-.94,2.94-1.41,4.42c-.47,1.48-.95,2.95-1.41,4.43-.46,1.48-.92,2.95-1.36,4.43s-.87,2.96-1.27,4.44-.78,2.96-1.13,4.44-.67,2.96-.95,4.44c-.28,1.48-.52,2.96-.71,4.44-.2,1.48-.35,2.96-.44,4.44-.1,1.48-.14,2.96-.12,4.44.02,1.7.11,3.4.26,5.1.15,1.69.35,3.39.61,5.07.26,1.69.57,3.37.92,5.05.35,1.68.75,3.36,1.18,5.03.44,1.67.9,3.34,1.4,5.01.49,1.67,1.01,3.33,1.55,4.99s1.1,3.32,1.66,4.97c.57,1.65,1.15,3.3,1.73,4.95.58,1.65,1.16,3.3,1.74,4.94.57,1.65,1.15,3.29,1.71,4.94,1.99,5.86,3.64,11.8,4.81,17.88.34,1.78.67,3.56,1.04,5.33.22,1.07.49,2.17.83,3.24.34,1.07.76,2.11,1.27,3.08.68,1.28,1.62,2.36,2.7,3.27s2.32,1.65,3.62,2.25c2.56,1.18,5.54,1.97,8.57,2.44,1.31.2,2.6.27,3.89.34h0c1.29-.07,2.58-.13,3.89-.34,3.03-.47,6.01-1.26,8.57-2.44,1.3-.59,2.54-1.33,3.62-2.25,1.08-.91,2.01-1.99,2.7-3.27.52-.97.93-2.01,1.27-3.08.34-1.07.61-2.17.83-3.24.37-1.77.7-3.55,1.04-5.33,1.17-6.08,2.82-12.02,4.81-17.88.56-1.64,1.13-3.29,1.7-4.94.58-1.64,1.16-3.29,1.74-4.94s1.16-3.3,1.73-4.96,1.12-3.31,1.66-4.97,1.06-3.32,1.55-4.99c.5-1.67.96-3.33,1.4-5.01s.83-3.35,1.18-5.03c.35-1.68.66-3.36.92-5.05.26-1.68.47-3.38.61-5.07.15-1.69.24-3.39.26-5.1.02-1.48-.02-2.96-.12-4.44-.09-1.48-.24-2.96-.44-4.44h-.03Z"/>
    <path class="st0" d="M1272.83,6.51c.16-.06.32-.11.48-.16.16-.05.33-.1.49-.15s.33-.1.5-.14.34-.09.5-.13c.17-.04.34-.08.51-.12.18-.04.35-.07.53-.1.18-.03.35-.06.53-.09s.36-.05.54-.08c.17-.02.33-.04.49-.06s.33-.03.48-.05c.16-.02.32-.03.48-.04.16-.01.31-.02.47-.03s.31-.02.47-.02c.15,0,.31-.01.46-.01h.9c.15,0,.3,0,.44.01.15,0,.29.01.44.02.14,0,.29.02.43.03s.28.02.42.04c.14.01.28.03.42.05s.27.04.41.06c.13.02.27.04.4.07.13.02.26.05.39.07.13.03.26.05.39.08.13.03.25.06.38.09s.25.07.37.1c.13.03.25.07.37.11,2.73.84,4.66,2.28,5.96,4.1,6.66,9.32-.63,22.05-6.98,29.35-.23.27-.47.53-.71.8s-.48.53-.72.79c-.24.26-.49.52-.73.78-.25.26-.5.52-.75.78s-.5.51-.75.77c-.25.25-.5.51-.76.76s-.51.5-.77.75-.52.5-.77.74c-.26.25-.52.49-.78.73-.26.24-.53.48-.79.72s-.52.48-.79.71c-.26.24-.53.47-.79.7s-.53.46-.79.69-.53.46-.79.69-.52.45-.79.67c-.26.22-.53.45-.78.66-.26.22-.52.44-.77.65-.26.22-.52.43-.77.64-.26.21-.51.42-.76.63-.25.21-.5.41-.76.62-.25.2-.5.4-.74.6-.25.2-.49.4-.74.59-.24.2-.48.39-.72.58-.24.19-.48.38-.71.57s-.46.37-.69.55-.46.36-.68.54c-.22.18-.44.35-.66.53-.22.17-.43.34-.64.51s-.42.33-.62.5-.4.33-.6.48c-.2.16-.39.32-.58.47s-.37.31-.55.45c-.18.15-.36.3-.53.44-.18.14-.35.29-.51.42-.16.14-.32.27-.48.41-.15.13-.31.26-.45.39-.23.2-.46.4-.69.6-.23.2-.46.4-.7.59-.23.2-.46.4-.7.59-.24.2-.47.4-.71.59-.24.2-.47.39-.71.59s-.48.39-.72.59-.48.39-.72.58c-.24.2-.48.39-.72.58-.24.2-.49.39-.73.58-.24.2-.49.39-.73.58-.24.2-.49.39-.74.58-.24.2-.49.39-.74.58-.24.19-.49.39-.74.58-.24.19-.49.39-.74.58-.24.19-.49.39-.74.58-.25.2-.49.39-.74.59-.24.2-.49.39-.74.59s-.49.39-.74.59c-.24.2-.49.39-.73.59s-.48.4-.73.59c-.24.2-.48.4-.72.6s-.48.4-.72.6-.48.4-.72.6-.48.4-.71.61-.47.41-.7.61c-.24.21-.47.41-.7.62s-.46.41-.69.62-.46.42-.68.63-.45.42-.67.63c-.22.21-.44.42-.66.64-.22.21-.44.43-.66.64-.22.21-.44.43-.65.65-.21.22-.42.44-.63.66s-.42.44-.62.66c-.21.22-.41.45-.61.67-.2.23-.4.45-.6.68s-.39.46-.59.68c-.19.23-.38.46-.57.69s-.37.47-.55.7c-.19.23-.37.47-.55.71s-.35.48-.53.72-.35.48-.51.73c-.17.24-.33.49-.49.74s-.32.5-.48.75-.31.5-.46.76c-.15.25-.29.51-.44.77-.14.26-.28.52-.42.78s-.27.52-.4.79c-.13.26-.26.53-.38.8-.12.27-.24.54-.36.81s-.23.55-.34.82-.22.55-.32.83-.2.56-.29.85c-.09.28-.19.57-.27.86-.09.29-.17.58-.25.87s-.15.59-.23.89c-.07.3-.13.6-.2.9s-.12.61-.18.91c-.05.31-.11.62-.15.93s-.08.62-.12.94-.07.63-.09.96c-.03.32-.05.65-.07.97-.02.33-.03.66-.04.99,0,.33-.01.67,0,1,0,.68.03,1.36.08,2.02.05.67.12,1.33.22,1.99.09.66.21,1.31.35,1.96s.3,1.29.48,1.93.38,1.27.59,1.9c.22.63.46,1.26.71,1.88.26.62.53,1.24.83,1.85.29.61.6,1.22.93,1.83.33.6.67,1.21,1.03,1.81s.74,1.19,1.14,1.79c.39.59.8,1.18,1.23,1.77.42.59.86,1.17,1.31,1.75.45.58.92,1.16,1.4,1.74s.97,1.15,1.48,1.72c.5.57,1.02,1.14,1.55,1.71s1.07,1.13,1.62,1.7c.55.57,1.11,1.13,1.68,1.69.57.56,1.15,1.12,1.74,1.68s1.19,1.12,1.79,1.68c.61.56,1.22,1.11,1.85,1.67.62.56,1.25,1.11,1.89,1.67s1.28,1.11,1.93,1.67,1.31,1.11,1.97,1.67c.66.56,1.33,1.11,2,1.67s1.34,1.12,2.02,1.67c.68.56,1.36,1.12,2.04,1.68s1.37,1.12,2.06,1.68c.69.56,1.38,1.13,2.07,1.69.69.57,1.38,1.13,2.08,1.7.69.57,1.39,1.14,2.08,1.71s1.38,1.15,2.08,1.73c.69.58,1.38,1.16,2.07,1.74s1.38,1.17,2.06,1.76,1.36,1.18,2.04,1.77c.68.59,1.35,1.19,2.01,1.79.67.6,1.33,1.21,1.99,1.82s1.31,1.22,1.96,1.84c.64.61,1.29,1.24,1.92,1.86s1.26,1.25,1.88,1.88,1.23,1.27,1.83,1.91,1.2,1.29,1.78,1.94c.59.65,1.16,1.31,1.73,1.97s1.12,1.33,1.66,2,1.07,1.35,1.6,2.04c.52.69,1.03,1.37,1.53,2.07.5.7.98,1.4,1.45,2.11s.93,1.42,1.37,2.14.87,1.45,1.29,2.19c.41.73.81,1.48,1.2,2.23.39.75.75,1.5,1.1,2.27.35.76.69,1.53,1.01,2.31.32.78.62,1.56.9,2.36.28.79.55,1.6.79,2.4.25.81.47,1.63.68,2.45.2.83.39,1.66.56,2.5.16.84.31,1.69.44,2.56.13.86.23,1.73.31,2.61.08.88.14,1.77.18,2.67s.05,1.8.04,2.72-.05,1.84-.11,2.78c-.06.94-.15,1.88-.26,2.84s-.24,1.92-.4,2.9-.35,1.97-.56,2.96c-.21,1-.46,2.01-.72,3.03-.1.39-.21.78-.33,1.17-.11.39-.23.78-.35,1.16-.12.39-.25.77-.39,1.16-.13.39-.27.77-.42,1.15-.15.38-.29.77-.45,1.15-.15.38-.32.76-.48,1.14s-.33.76-.5,1.14c-.18.38-.35.76-.54,1.14s-.37.75-.56,1.13c-.19.38-.39.75-.59,1.13-.2.37-.41.75-.61,1.12-.21.37-.42.74-.64,1.12-.22.37-.44.74-.66,1.11-.23.37-.46.73-.69,1.1-.23.37-.47.73-.7,1.1-.24.36-.48.73-.73,1.09-.24.36-.5.72-.75,1.09-.25.36-.51.72-.77,1.08s-.53.72-.79,1.08c-.27.36-.54.71-.81,1.07-.27.36-.55.71-.83,1.07-.28.35-.56.71-.85,1.06-.28.35-.57.7-.86,1.05s-.58.7-.88,1.05-.59.7-.89,1.04c-.3.35-.6.69-.9,1.04-.3.34-.61.69-.92,1.03s-.61.68-.93,1.02-.63.68-.94,1.02c-.32.34-.63.68-.95,1.01-.32.34-.64.67-.96,1.01-.32.33-.65.67-.97,1s-.65.66-.98.99-.66.66-.99.98-.66.65-.99.98c-.33.32-.67.65-1,.97s-.67.64-1.01.96c-.34.32-.68.64-1.01.96-.34.32-.68.63-1.01.95-.34.32-.68.63-1.02.94s-.68.63-1.02.94-.68.62-1.02.93-.68.62-1.02.92c-.34.31-.68.61-1.03.92-.34.31-.68.61-1.02.91-.34.3-.68.6-1.02.9s-.68.6-1.02.9-.68.59-1.02.89c-.34.3-.68.59-1.01.88-.34.29-.67.58-1.01.87-.33.29-.67.58-1,.87s-.66.57-1,.86c-.33.28-.66.57-.99.85s-.66.56-.98.84c-.33.28-.65.56-.97.83-.32.28-.65.55-.96.83-.32.27-.64.55-.95.82-.32.27-.63.54-.94.81-.31.27-.62.54-.93.81-.31.26-.61.53-.92.79s-.61.52-.91.79c-.3.26-.6.52-.89.78-.3.26-.59.51-.88.77-.29.25-.58.51-.86.76-.11.09-.22.2-.34.31s-.25.22-.38.34-.28.25-.43.38c-.15.14-.31.28-.47.42-.16.15-.33.3-.51.46s-.35.32-.55.49c-.19.17-.38.34-.58.52s-.41.36-.62.55-.43.38-.65.57c-.22.2-.45.39-.68.6-.24.2-.47.41-.72.62-.24.21-.5.43-.75.64-.25.22-.51.44-.77.66s-.53.44-.8.67-.55.46-.83.69c-.28.23-.56.47-.85.7-.29.23-.58.47-.88.71-.29.24-.59.48-.9.71-.3.24-.61.48-.91.72-.31.24-.62.48-.93.72s-.63.48-.95.72-.64.48-.96.72c-.33.24-.65.48-.98.72s-.66.47-.99.7-.67.47-1,.7-.67.46-1.01.69c-.34.22-.68.45-1.02.67s-.69.44-1.03.66-.69.43-1.03.64c-.35.21-.69.42-1.04.62-.35.2-.69.4-1.04.6-.35.2-.7.39-1.04.58s-.69.37-1.04.55c-.35.18-.69.35-1.04.52-.35.17-.69.33-1.03.49-.35.15-.69.31-1.03.46-.35.15-.69.28-1.03.42-.34.13-.68.26-1.02.38s-.67.24-1.01.35c-.33.11-.67.21-1,.3s-.66.18-.98.26c-.33.08-.65.15-.97.21s-.64.12-.96.16c-.32.05-.63.09-.94.11-.71.07-1.53,0-2.37-.16-.85-.17-1.73-.43-2.6-.76-.86-.33-1.71-.72-2.47-1.14-.77-.42-1.44-.87-1.98-1.31-2.43-1.99-3.74-4.38-4.25-6.97-.51-2.58-.21-5.35.58-8.1.79-2.75,2.08-5.49,3.55-8,1.47-2.51,3.13-4.8,4.65-6.65.21-.26.42-.51.64-.77.22-.26.43-.51.65-.76s.44-.51.66-.76c.22-.26.45-.51.68-.76l.69-.75.69-.75c.23-.25.47-.5.7-.75.24-.25.47-.49.71-.74s.48-.49.72-.73c.24-.24.48-.48.72-.73s.48-.48.73-.72c.24-.24.48-.48.73-.72s.49-.48.74-.71c.24-.24.49-.47.74-.7s.49-.47.74-.7.5-.46.74-.69.49-.46.74-.68c.25-.23.49-.45.74-.68.24-.22.49-.45.74-.67.24-.22.48-.44.73-.66s.48-.44.72-.65c.24-.22.48-.43.72-.64.24-.21.48-.42.72-.63s.47-.42.7-.62c.24-.21.46-.41.7-.61.23-.2.46-.4.69-.6s.46-.4.68-.59c.23-.2.45-.39.67-.58.22-.19.44-.38.65-.57.22-.19.43-.37.64-.56s.42-.37.62-.55.41-.36.61-.54c.2-.18.4-.35.59-.52.19-.17.39-.34.57-.51.19-.17.37-.34.55-.5.18-.17.36-.33.54-.49.19-.17.37-.34.56-.5.19-.17.38-.34.57-.51s.39-.34.59-.51.39-.34.6-.51c.2-.17.41-.34.61-.52.21-.17.42-.35.62-.52s.42-.35.63-.52c.21-.17.43-.35.64-.53.22-.18.43-.35.65-.53s.44-.35.66-.53c.22-.18.44-.36.66-.54.22-.18.45-.36.67-.54s.45-.36.68-.54c.22-.18.45-.36.68-.55.23-.19.46-.37.69-.55.23-.19.46-.37.69-.56s.46-.37.7-.56c.23-.19.46-.37.7-.56.23-.19.46-.38.7-.57.23-.19.47-.38.7-.57s.47-.38.7-.58c.24-.19.47-.39.7-.58.23-.2.47-.39.7-.59s.47-.39.7-.59.46-.4.7-.6c.23-.2.46-.4.69-.6.23-.2.46-.4.69-.61.23-.2.46-.41.68-.61.22-.21.45-.41.68-.62.23-.21.45-.42.68-.63.22-.21.45-.42.67-.63.22-.21.44-.42.66-.64.22-.21.44-.43.65-.64s.44-.43.65-.65c.21-.22.42-.44.63-.66s.42-.44.62-.66c.21-.22.41-.44.61-.67.2-.22.4-.45.6-.67.2-.23.4-.45.59-.68.2-.23.39-.46.58-.69s.38-.46.57-.69c.18-.23.37-.47.55-.7s.36-.47.54-.71.35-.47.53-.71.34-.48.5-.72c.17-.24.33-.48.49-.73.16-.24.32-.49.47-.73s.3-.49.45-.74c.15-.25.29-.5.44-.75.14-.25.28-.5.42-.76.13-.25.27-.51.4-.76.13-.26.26-.51.37-.77s.24-.52.35-.78.22-.52.33-.79c.11-.26.21-.53.31-.8.1-.27.2-.53.29-.8.09-.27.18-.54.26-.81s.16-.55.23-.82c.08-.28.15-.55.21-.83s.13-.56.18-.84c.06-.28.11-.56.16-.85.05-.28.09-.57.13-.85.04-.29.07-.57.1-.86s.05-.58.07-.87c.05-.78.07-1.55.07-2.32s-.03-1.52-.08-2.26c-.05-.75-.13-1.48-.23-2.21-.1-.73-.22-1.45-.37-2.16s-.32-1.41-.5-2.11c-.19-.7-.4-1.38-.64-2.07-.23-.68-.49-1.35-.76-2.02s-.57-1.33-.88-1.98-.64-1.3-.99-1.94-.72-1.28-1.1-1.91c-.39-.63-.79-1.26-1.21-1.87-.42-.62-.85-1.24-1.31-1.84s-.92-1.21-1.4-1.81c-.48-.6-.97-1.2-1.48-1.79s-1.03-1.18-1.57-1.76c-.53-.58-1.08-1.17-1.64-1.74-.56-.58-1.14-1.15-1.72-1.73-.59-.57-1.18-1.14-1.78-1.71s-1.22-1.13-1.84-1.69-1.26-1.12-1.9-1.68-1.29-1.12-1.95-1.67c-.66-.56-1.32-1.11-1.99-1.66s-1.35-1.11-2.03-1.66-1.38-1.1-2.07-1.66c-.69-.55-1.39-1.1-2.1-1.66-.7-.55-1.41-1.11-2.12-1.66s-1.42-1.11-2.14-1.66c-.72-.56-1.43-1.11-2.15-1.67s-1.44-1.12-2.16-1.68c-.72-.56-1.44-1.13-2.16-1.69-.72-.56-1.44-1.13-2.16-1.7-.72-.57-1.43-1.14-2.14-1.72s-1.42-1.16-2.13-1.74-1.41-1.17-2.11-1.76-1.4-1.18-2.08-1.78c-.69-.6-1.38-1.2-2.06-1.81s-1.35-1.22-2.02-1.84c-.66-.62-1.32-1.24-1.97-1.87-.65-.63-1.29-1.26-1.93-1.9-.63-.64-1.26-1.28-1.88-1.94-.62-.65-1.22-1.31-1.82-1.97-.59-.67-1.18-1.33-1.75-2.01s-1.14-1.36-1.68-2.06c-.55-.69-1.09-1.39-1.62-2.1s-1.04-1.42-1.53-2.15c-.5-.72-.98-1.46-1.45-2.2s-.92-1.49-1.36-2.25-.86-1.53-1.27-2.3-.79-1.56-1.16-2.36-.73-1.6-1.06-2.42c-.33-.82-.65-1.64-.94-2.48-.3-.84-.57-1.68-.83-2.54s-.49-1.73-.71-2.61c-.21-.88-.41-1.77-.58-2.68-.17-.9-.32-1.82-.44-2.75-.13-.93-.23-1.87-.31-2.82-.08-.95-.13-1.92-.16-2.9s-.04-1.97-.02-2.98.07-2.02.14-3.06c.07-1.03.18-2.08.3-3.14.13-1.06.28-2.13.46-3.22.18-1.09.39-2.19.64-3.31.24-1.12.51-2.25.81-3.4s.63-2.31.99-3.49c.14-.45.28-.89.44-1.34.16-.45.32-.9.5-1.35s.36-.91.55-1.36c.19-.46.39-.91.61-1.37.21-.46.43-.92.66-1.38s.46-.92.71-1.39c.25-.46.5-.93.76-1.39s.54-.93.81-1.4c.28-.47.57-.94.86-1.41.3-.47.6-.94.9-1.41.31-.47.63-.94.95-1.42.33-.47.66-.94.99-1.42.34-.47.68-.95,1.03-1.42s.71-.95,1.07-1.42c.36-.48.73-.95,1.11-1.43.37-.48.76-.95,1.14-1.43.39-.48.78-.95,1.18-1.43s.81-.95,1.22-1.43c.41-.48.83-.95,1.25-1.43s.85-.95,1.28-1.43c.43-.47.87-.95,1.31-1.42.44-.47.88-.95,1.33-1.42.45-.47.9-.95,1.36-1.42s.92-.94,1.38-1.41c.47-.47.94-.94,1.41-1.41.47-.47.95-.94,1.42-1.4.48-.47.96-.93,1.44-1.4.49-.46.98-.93,1.47-1.39s.98-.92,1.48-1.39c.5-.46,1-.92,1.5-1.38.5-.46,1-.91,1.51-1.37.5-.45,1.01-.91,1.52-1.36s1.02-.9,1.53-1.35c.51-.45,1.03-.89,1.54-1.34.52-.45,1.03-.89,1.55-1.33.52-.44,1.04-.88,1.55-1.31s1.04-.87,1.56-1.3l1.56-1.29c.52-.43,1.04-.85,1.56-1.28s1.04-.84,1.56-1.26,1.04-.83,1.56-1.25l1.56-1.23c.52-.41,1.04-.81,1.55-1.21.52-.4,1.03-.8,1.54-1.2.51-.4,1.03-.79,1.54-1.18s1.02-.78,1.53-1.16,1.01-.77,1.52-1.14c.5-.38,1.01-.75,1.51-1.12s1-.74,1.49-1.1.98-.72,1.47-1.08.98-.71,1.46-1.06.96-.7,1.44-1.04.95-.68,1.42-1.01.94-.66,1.4-.99c.46-.33.92-.65,1.37-.97.46-.32.9-.63,1.35-.94.54-.37,1.06-.75,1.58-1.12.53-.37,1.04-.75,1.55-1.13.52-.37,1.03-.74,1.54-1.11.51-.36,1.03-.72,1.54-1.07.52-.35,1.04-.68,1.57-1.01.53-.32,1.06-.63,1.6-.92.55-.29,1.09-.57,1.66-.82.56-.25,1.14-.48,1.73-.69l-.02-.03h0Z"/>
    <path class="st0" d="M897.49,141.61c2.05,1.89,3.25,4.91,3.04,9.37-.07,1.48-.32,2.98-.68,4.41-.36,1.43-.84,2.8-1.38,4.03-.21.48-.43.95-.66,1.42s-.48.94-.74,1.41-.53.93-.81,1.39c-.28.46-.58.92-.88,1.38s-.61.91-.93,1.37c-.32.45-.65.9-.99,1.35s-.68.89-1.03,1.33c-.35.44-.71.88-1.07,1.32-2.59,3.14-5.24,6.23-7.91,9.3-2.68,3.07-5.38,6.11-8.08,9.16-2.71,3.05-5.41,6.09-8.1,9.15-2.68,3.06-5.34,6.15-7.95,9.27-.76.91-1.52,1.82-2.28,2.74-.76.91-1.52,1.83-2.28,2.74s-1.52,1.82-2.29,2.74c-.76.91-1.53,1.82-2.29,2.73-1.72,2.05-3.45,4.11-5.18,6.15-1.73,2.05-3.47,4.09-5.22,6.13-1.74,2.04-3.49,4.07-5.25,6.1s-3.52,4.05-5.29,6.06c-1.1,1.25-2.2,2.49-3.3,3.72s-2.21,2.46-3.31,3.69c-1.11,1.23-2.21,2.44-3.32,3.65-1.11,1.21-2.22,2.41-3.33,3.61-1.11,1.19-2.22,2.38-3.34,3.55-1.11,1.18-2.23,2.34-3.34,3.49-1.11,1.15-2.23,2.3-3.34,3.42-1.12,1.13-2.23,2.25-3.34,3.35-1.11,1.1-2.23,2.19-3.34,3.27-1.11,1.07-2.22,2.13-3.33,3.18-1.11,1.05-2.22,2.07-3.32,3.08-1.11,1.01-2.21,2-3.31,2.98s-2.2,1.93-3.3,2.87-2.2,1.86-3.29,2.75c-1.09.9-2.18,1.77-3.27,2.62s-2.17,1.68-3.25,2.49c-.89.66-1.79,1.31-2.72,1.97-.92.65-1.86,1.29-2.82,1.92-.95.63-1.93,1.25-2.92,1.86s-1.99,1.21-3.01,1.8-2.05,1.17-3.1,1.74c-1.05.57-2.11,1.12-3.18,1.66-1.08.54-2.16,1.07-3.27,1.6-1.1.52-2.21,1.02-3.34,1.51-1.13.49-2.26.97-3.41,1.43-1.15.46-2.31.91-3.48,1.34s-2.35.85-3.54,1.25-2.39.78-3.6,1.14c-1.21.36-2.43.71-3.65,1.04-1.23.33-2.46.64-3.7.93-1.24.29-2.49.57-3.74.82-1.26.25-2.52.48-3.79.7-1.27.21-2.54.4-3.82.57s-2.56.32-3.85.44-2.58.23-3.88.31-2.59.14-3.9.17c-1.3.03-2.61.04-3.92.02s-2.62-.06-3.93-.13-2.62-.16-3.93-.28-2.63-.27-3.94-.44c-1.31-.18-2.63-.37-3.94-.61-1.31-.23-2.62-.48-3.93-.77-1.31-.29-2.62-.6-3.92-.95s-2.61-.72-3.91-1.13-2.59-.85-3.89-1.31c-1.29-.47-2.58-.97-3.86-1.51-1.28-.53-2.56-1.1-3.83-1.7s-2.54-1.23-3.8-1.9c-1.1-.58-2.2-1.19-3.28-1.81-1.09-.63-2.17-1.27-3.24-1.94s-2.14-1.35-3.2-2.06-2.12-1.43-3.17-2.18c-1.05-.74-2.1-1.51-3.14-2.28-1.04-.78-2.08-1.58-3.11-2.4-1.03-.82-2.06-1.65-3.07-2.49-1.02-.85-2.04-1.71-3.05-2.59s-2.02-1.77-3.02-2.68-2-1.83-3-2.77-1.99-1.88-2.98-2.84-1.98-1.93-2.96-2.91c-.99-.98-1.97-1.98-2.95-2.99-.98-1-1.96-2.02-2.93-3.04-.98-1.03-1.95-2.06-2.92-3.1s-1.94-2.1-2.91-3.16-1.94-2.13-2.9-3.21c-.97-1.07-1.93-2.16-2.9-3.25-.97-1.09-1.93-2.18-2.9-3.28-.96-1.1-1.93-2.2-2.89-3.31s-1.93-2.22-2.9-3.34c-.96-1.12-1.93-2.24-2.9-3.36-.97-1.12-1.93-2.25-2.91-3.37-.97-1.13-1.94-2.25-2.91-3.38s-1.95-2.26-2.92-3.39c-.98-1.13-1.96-2.26-2.94-3.39s-1.97-2.26-2.95-3.38c-.99-1.13-1.98-2.25-2.97-3.37s-1.99-2.24-2.99-3.35-2-2.22-3.01-3.33c-1.01-1.1-2.02-2.21-3.03-3.3s-2.03-2.18-3.06-3.27c-.95-1-1.9-2.02-2.86-3.07-.96-1.04-1.93-2.11-2.91-3.19s-1.97-2.18-2.97-3.3c-1-1.12-2-2.25-3.02-3.39-1.02-1.15-2.04-2.3-3.07-3.47s-2.08-2.34-3.13-3.53c-1.05-1.18-2.11-2.38-3.19-3.58-1.07-1.2-2.15-2.4-3.25-3.61-1.09-1.2-2.19-2.41-3.31-3.62-1.11-1.21-2.23-2.42-3.37-3.62-1.13-1.2-2.28-2.41-3.43-3.61-1.15-1.2-2.32-2.39-3.49-3.57-1.17-1.18-2.36-2.36-3.56-3.53s-2.41-2.32-3.62-3.47c-1.22-1.14-2.45-2.27-3.69-3.39s-2.49-2.21-3.76-3.29-2.54-2.14-3.83-3.18c-1.29-1.04-2.59-2.06-3.9-3.06s-2.64-1.97-3.97-2.92-2.68-1.87-4.04-2.76c-1.36-.89-2.73-1.76-4.12-2.59s-2.78-1.64-4.19-2.41-2.83-1.5-4.27-2.2-2.89-1.36-4.35-1.99c-1.46-.62-2.94-1.21-4.43-1.75s-2.99-1.05-4.51-1.5c-1.52-.46-3.04-.87-4.59-1.24-1.54-.37-3.1-.69-4.67-.96s-3.16-.49-4.75-.66c-1.6-.17-3.21-.29-4.84-.35-1.63-.07-3.27-.07-4.92-.02-1.66.05-3.33.15-5.01.32-1.36.13-2.72.31-4.06.52s-2.67.46-3.98.74-2.62.61-3.91.96c-1.29.36-2.57.75-3.84,1.17s-2.53.88-3.77,1.37c-1.25.49-2.48,1.01-3.71,1.56-1.22.55-2.44,1.13-3.65,1.74-1.2.61-2.4,1.24-3.59,1.9s-2.36,1.35-3.53,2.06c-1.17.71-2.32,1.45-3.47,2.21-1.15.76-2.29,1.55-3.42,2.35-1.13.81-2.25,1.64-3.36,2.48s-2.22,1.72-3.31,2.6c-1.1.89-2.19,1.79-3.26,2.71s-2.15,1.86-3.22,2.82c-1.06.95-2.12,1.92-3.17,2.91-1.05.98-2.09,1.98-3.13,2.99-1.04,1.01-2.07,2.03-3.09,3.06s-2.04,2.07-3.05,3.12c-1.01,1.05-2.01,2.11-3.01,3.17s-1.99,2.14-2.97,3.21c-.99,1.08-1.97,2.16-2.94,3.25s-1.95,2.18-2.91,3.27c-.97,1.09-1.93,2.19-2.88,3.28s-1.91,2.19-2.86,3.29c-.95,1.09-1.89,2.19-2.83,3.28-.94,1.09-1.88,2.18-2.81,3.26s-1.86,2.16-2.79,3.24c-.93,1.07-1.85,2.14-2.77,3.2-.92,1.06-1.84,2.11-2.75,3.15-.92,1.04-1.83,2.08-2.74,3.1s-1.82,2.03-2.73,3.03c-.9.99-1.8,1.99-2.7,2.99s-1.81,2.02-2.72,3.04c-.91,1.02-1.82,2.05-2.74,3.08-.92,1.03-1.84,2.07-2.76,3.12-.92,1.05-1.85,2.1-2.77,3.15-.93,1.05-1.86,2.11-2.79,3.18-.93,1.06-1.87,2.13-2.8,3.2-.94,1.07-1.88,2.14-2.82,3.21s-1.89,2.14-2.83,3.22c-.95,1.07-1.9,2.15-2.85,3.22s-1.9,2.15-2.86,3.22-1.91,2.14-2.88,3.21c-.96,1.07-1.92,2.13-2.89,3.2-.96,1.06-1.93,2.12-2.9,3.18-.97,1.06-1.94,2.11-2.91,3.15-.97,1.05-1.95,2.09-2.92,3.12s-1.95,2.06-2.93,3.08c-.98,1.02-1.96,2.03-2.94,3.04s-1.97,2-2.95,2.99c-.99.99-1.97,1.97-2.96,2.94s-1.98,1.93-2.97,2.88-1.99,1.89-2.98,2.81c-1,.92-1.99,1.84-2.99,2.74s-2,1.79-3,2.67c-1,.87-2,1.73-3,2.58-1,.85-2,1.68-3.01,2.5-1,.81-2.01,1.62-3.01,2.4s-2.01,1.55-3.02,2.3-2.01,1.48-3.02,2.2c-1.01.71-2.02,1.41-3.03,2.08-1.01.68-2.02,1.33-3.03,1.97s-2.02,1.25-3.04,1.85c-.72.43-1.46.85-2.21,1.26-.75.42-1.52.82-2.3,1.23-.78.4-1.57.79-2.38,1.18-.81.39-1.62.77-2.45,1.14-.83.37-1.67.73-2.52,1.09-.85.35-1.72.7-2.59,1.04s-1.76.67-2.66.99c-.9.32-1.8.63-2.72.93s-1.84.59-2.77.88c-.93.28-1.87.55-2.82.81s-1.91.51-2.88.75c-.96.24-1.94.47-2.92.69s-1.97.42-2.96.62c-.99.19-1.99.37-3,.55-1,.17-2.01.33-3.03.47-1.01.15-2.03.28-3.06.4-1.02.12-2.05.22-3.08.31s-2.07.17-3.11.23c-1.04.07-2.08.11-3.12.15-1.04.03-2.09.05-3.14.06-1.05,0-2.1,0-3.15-.03-1.05-.03-2.1-.07-3.15-.13-1.05-.06-2.1-.13-3.16-.23-1.05-.09-2.1-.2-3.15-.33-1.05-.13-2.1-.27-3.15-.43-1.05-.16-2.1-.34-3.14-.54s-2.09-.41-3.12-.64c-1.04-.23-2.08-.48-3.11-.75s-2.06-.56-3.09-.87c-1.02-.31-2.04-.64-3.06-.99-1.02-.35-2.03-.71-3.03-1.1-1.01-.39-2-.79-3-1.22-1.53-.66-3.05-1.36-4.56-2.08-1.51-.73-3.01-1.49-4.51-2.29-1.5-.79-2.98-1.62-4.46-2.47-1.48-.86-2.95-1.75-4.41-2.66-1.46-.92-2.92-1.86-4.37-2.83s-2.89-1.97-4.32-2.99c-1.43-1.03-2.86-2.08-4.28-3.15s-2.83-2.17-4.23-3.28c-1.4-1.12-2.8-2.26-4.18-3.42-1.39-1.16-2.77-2.35-4.14-3.55-1.37-1.2-2.74-2.42-4.1-3.66s-2.71-2.49-4.05-3.76c-1.34-1.27-2.68-2.56-4.01-3.86s-2.65-2.62-3.97-3.94c-1.32-1.33-2.62-2.67-3.93-4.02-1.3-1.35-2.6-2.71-3.89-4.09-1.29-1.37-2.57-2.75-3.85-4.14s-2.55-2.79-3.81-4.19c-1.26-1.4-2.52-2.81-3.77-4.22s-2.49-2.83-3.73-4.25c-1.24-1.42-2.47-2.85-3.69-4.27-1.23-1.43-2.44-2.85-3.65-4.28s-2.42-2.85-3.62-4.28c-1.2-1.42-2.39-2.85-3.58-4.26-1.7-2.03-3.4-4.07-5.08-6.11-1.69-2.04-3.38-4.09-5.07-6.13-1.69-2.04-3.38-4.09-5.08-6.12s-3.4-4.07-5.12-6.08c-1.43-1.68-2.91-3.33-4.41-4.96s-3.01-3.24-4.52-4.86-3.02-3.24-4.5-4.88-2.94-3.31-4.35-5.01c-1.86-2.25-3.89-4.93-5.77-7.86-1.88-2.94-3.6-6.13-4.83-9.4s-1.97-6.64-1.89-9.91c.08-3.27.99-6.46,3.05-9.38,1.61-2.28,3.63-3.5,5.86-3.97,12.57-2.63,23.18,8.88,30.72,17.24,11.53,12.8,22.18,26.33,33.76,39.09,4.34,4.78,8.67,9.57,13,14.36s8.66,9.58,12.98,14.38c4.32,4.8,8.64,9.6,12.96,14.4,3.11,3.46,6.29,6.88,9.59,10.2,3.3,3.32,6.71,6.54,10.26,9.58,3.55,3.04,7.24,5.91,11.11,8.52,3.86,2.61,7.9,4.97,12.13,7,1.14.54,2.28,1.06,3.44,1.55s2.33.96,3.52,1.4c1.18.44,2.38.85,3.6,1.22,1.21.38,2.44.73,3.67,1.04,1.24.31,2.49.6,3.76.85,1.27.25,2.55.46,3.84.65,1.3.18,2.6.33,3.93.44,1.32.11,2.66.19,4.02.22,1.42.04,2.84.02,4.25-.04s2.81-.17,4.21-.33c1.4-.15,2.79-.36,4.17-.6s2.76-.53,4.13-.86c1.37-.33,2.73-.7,4.09-1.11,1.36-.41,2.7-.85,4.04-1.34s2.67-1.01,4-1.56c1.32-.55,2.64-1.14,3.95-1.77,1.31-.62,2.61-1.28,3.91-1.96,1.29-.69,2.58-1.4,3.86-2.14,1.28-.74,2.55-1.51,3.81-2.31s2.51-1.62,3.76-2.47c1.24-.85,2.48-1.72,3.71-2.61,1.23-.89,2.44-1.8,3.65-2.74,1.21-.93,2.41-1.88,3.6-2.85s2.37-1.95,3.54-2.95,2.34-2.01,3.49-3.04c1.15-1.03,2.3-2.07,3.43-3.12,1.14-1.05,2.26-2.11,3.37-3.18,1.12-1.07,2.22-2.15,3.31-3.23s2.18-2.17,3.25-3.27c1.07-1.09,2.14-2.19,3.19-3.29,1.05-1.1,2.1-2.2,3.13-3.3s2.05-2.2,3.07-3.29c1.01-1.1,2.01-2.19,3-3.28s1.97-2.17,2.94-3.25,1.92-2.15,2.87-3.2c.95-1.06,1.88-2.11,2.8-3.15.92-1.04,1.83-2.07,2.73-3.08.9-1.01,1.79-2.01,2.66-3,.88-.98,1.74-1.95,2.59-2.9s1.69-1.88,2.52-2.79c1.36-1.5,2.74-3.05,4.13-4.63,1.39-1.59,2.8-3.22,4.23-4.88,1.43-1.66,2.87-3.36,4.33-5.09s2.93-3.49,4.43-5.27c1.49-1.78,3.01-3.59,4.53-5.41s3.07-3.66,4.64-5.52c1.56-1.85,3.15-3.72,4.75-5.59s3.22-3.75,4.87-5.63c1.64-1.88,3.3-3.76,4.98-5.64,1.68-1.88,3.38-3.75,5.1-5.61s3.46-3.71,5.22-5.55,3.54-3.65,5.34-5.45,3.62-3.57,5.47-5.32,3.71-3.47,5.6-5.16,3.8-3.34,5.73-4.96c1.93-1.62,3.89-3.19,5.86-4.73,1.98-1.53,3.98-3.02,6-4.46s4.07-2.82,6.14-4.16c2.07-1.33,4.17-2.61,6.28-3.82s4.26-2.37,6.43-3.45c2.17-1.09,4.36-2.1,6.58-3.05,2.22-.94,4.46-1.82,6.73-2.61,2.27-.79,4.56-1.51,6.88-2.14s4.67-1.18,7.04-1.63c2.37-.46,4.77-.82,7.2-1.09,2.43-.27,4.88-.45,7.36-.52s4.99-.05,7.52.09c2.54.13,5.1.37,7.69.73s5.21.82,7.86,1.41c2.65.58,5.33,1.29,8.03,2.12,2.71.83,5.44,1.78,8.21,2.86s5.56,2.29,8.39,3.64c1.09.52,2.19,1.07,3.28,1.64s2.19,1.16,3.29,1.78c1.09.62,2.19,1.26,3.29,1.92,1.1.66,2.19,1.34,3.28,2.05,1.09.7,2.19,1.43,3.28,2.17s2.19,1.51,3.28,2.29,2.18,1.58,3.27,2.4,2.18,1.65,3.27,2.5,2.17,1.72,3.26,2.6c1.08.88,2.17,1.78,3.25,2.69s2.16,1.84,3.24,2.78,2.15,1.89,3.23,2.86c1.07.97,2.14,1.94,3.21,2.93,1.07.99,2.13,1.98,3.19,2.99,1.06,1.01,2.12,2.03,3.18,3.05,1.06,1.03,2.11,2.07,3.16,3.11s2.1,2.1,3.14,3.16c1.04,1.06,2.09,2.12,3.12,3.19,1.04,1.07,2.07,2.15,3.1,3.23,1.03,1.08,2.06,2.17,3.08,3.26s2.04,2.18,3.05,3.28c1.01,1.09,2.02,2.19,3.03,3.29,1,1.1,2,2.2,3,3.3s1.98,2.2,2.97,3.3,1.97,2.2,2.94,3.3c.98,1.1,1.95,2.2,2.91,3.29.96,1.09,1.92,2.18,2.88,3.27.95,1.09,1.9,2.17,2.84,3.25s1.88,2.15,2.81,3.22,1.86,2.13,2.77,3.18c.92,1.05,1.83,2.1,2.74,3.14.9,1.04,1.8,2.07,2.69,3.09.93,1.07,1.87,2.15,2.8,3.24.93,1.09,1.86,2.19,2.8,3.3.93,1.11,1.87,2.22,2.8,3.35.93,1.12,1.87,2.25,2.8,3.39s1.87,2.27,2.81,3.42c.94,1.14,1.88,2.29,2.82,3.44.94,1.15,1.89,2.3,2.83,3.45.95,1.15,1.9,2.31,2.85,3.46.95,1.15,1.91,2.3,2.87,3.45s1.92,2.29,2.89,3.43c.97,1.14,1.94,2.28,2.91,3.41s1.95,2.26,2.94,3.38c.98,1.12,1.97,2.23,2.96,3.34.99,1.1,1.99,2.2,3,3.28,1,1.08,2.01,2.16,3.03,3.22s2.03,2.11,3.06,3.15c1.03,1.04,2.06,2.06,3.1,3.07,1.04,1.01,2.09,2,3.14,2.98s2.12,1.94,3.18,2.89c1.07.94,2.14,1.87,3.23,2.78,1.08.91,2.18,1.79,3.28,2.66,1.1.86,2.21,1.71,3.33,2.53s2.24,1.62,3.38,2.4,2.28,1.53,3.43,2.26c1.15.73,2.32,1.43,3.49,2.1s2.36,1.32,3.55,1.94,2.4,1.21,3.62,1.77c1.21.56,2.44,1.09,3.68,1.59s2.49.96,3.75,1.4c1.26.43,2.54.83,3.82,1.2,1.28.37,2.58.69,3.89.99,1.31.29,2.63.55,3.97.77,1.67.27,3.32.49,4.95.65s3.25.26,4.84.32c1.6.05,3.18.05,4.74,0s3.11-.15,4.64-.31c1.53-.15,3.04-.35,4.54-.59s2.98-.54,4.44-.87,2.91-.72,4.34-1.13c1.43-.42,2.85-.88,4.25-1.38s2.79-1.03,4.16-1.61c1.37-.57,2.73-1.18,4.07-1.82s2.67-1.32,3.98-2.02c1.31-.71,2.61-1.44,3.89-2.21s2.55-1.56,3.81-2.38,2.5-1.67,3.73-2.54,2.44-1.77,3.65-2.69c1.2-.92,2.39-1.86,3.57-2.81,1.18-.96,2.34-1.94,3.49-2.93,1.15-.99,2.29-2,3.42-3.03,1.13-1.02,2.24-2.06,3.34-3.11,1.1-1.05,2.19-2.11,3.27-3.18,1.08-1.07,2.15-2.15,3.2-3.24,1.06-1.09,2.1-2.18,3.14-3.28,1.03-1.1,2.06-2.2,3.07-3.3s2.01-2.21,3.01-3.32c.99-1.11,1.97-2.21,2.95-3.32.97-1.1,1.93-2.2,2.89-3.3s1.89-2.19,2.83-3.27c.93-1.08,1.86-2.15,2.77-3.22.91-1.06,1.82-2.12,2.72-3.16.9-1.04,1.79-2.07,2.67-3.08s1.75-2.01,2.61-2.99c.86-.98,1.72-1.95,2.57-2.89.39-.44.79-.87,1.18-1.31s.79-.88,1.18-1.32.79-.88,1.19-1.32c.39-.44.79-.89,1.19-1.33s.8-.89,1.19-1.33c.4-.44.8-.89,1.2-1.33.4-.45.8-.89,1.2-1.33s.8-.89,1.2-1.34.8-.89,1.21-1.34c.4-.45.81-.89,1.21-1.34.41-.45.81-.89,1.21-1.34.41-.45.81-.89,1.22-1.34,2.35-2.59,4.72-5.16,7.09-7.72,2.37-2.57,4.76-5.12,7.14-7.68s4.77-5.11,7.15-7.67,4.75-5.13,7.11-7.71c1.35-1.48,2.69-2.96,4.03-4.43,1.34-1.47,2.69-2.94,4.05-4.4,7.18-7.67,24.69-23.49,35.83-13.18l-.03-.05h0Z"/>
  </g>
</svg>